<svg width="551" height="389" viewBox="0 0 551 389" fill="none" xmlns="http://www.w3.org/2000/svg">
<path d="M399 61.9282C406.426 57.641 415.574 57.641 423 61.9282L520.244 118.072C527.669 122.359 532.244 130.282 532.244 138.856V251.144C532.244 259.718 527.669 267.641 520.244 271.928L423 328.072C415.574 332.359 406.426 332.359 399 328.072L301.756 271.928C294.331 267.641 289.756 259.718 289.756 251.144V138.856C289.756 130.282 294.331 122.359 301.756 118.072L399 61.9282Z" fill="url(#paint0_linear_106_2)"/>
<path fill-rule="evenodd" clip-rule="evenodd" d="M411 235.25C433.229 235.25 451.25 217.229 451.25 195C451.25 172.771 433.229 154.75 411 154.75C388.771 154.75 370.75 172.771 370.75 195C370.75 217.229 388.771 235.25 411 235.25ZM411 220.156C424.893 220.156 436.156 208.893 436.156 195C436.156 181.107 424.893 169.844 411 169.844C397.107 169.844 385.844 181.107 385.844 195C385.844 208.893 397.107 220.156 411 220.156Z" fill="#444444"/>
<path d="M426.094 195C426.094 203.336 419.336 210.094 411 210.094C402.664 210.094 395.906 203.336 395.906 195C395.906 186.664 402.664 179.906 411 179.906C419.336 179.906 426.094 186.664 426.094 195Z" fill="#444444"/>
<path d="M328.611 162.682C353.13 176.823 353.13 212.176 328.611 226.318L55.1682 384.023C30.649 398.164 0 380.488 0 352.205L0 36.7948C0 8.51237 30.649 -9.16418 55.1682 4.97703L328.611 162.682Z" fill="url(#paint1_linear_106_2)" fill-opacity="0.125"/>
<path d="M392.611 162.682C417.13 176.823 417.13 212.176 392.611 226.318L119.168 384.023C94.649 398.164 64 380.488 64 352.205L64 36.7948C64 8.51237 94.649 -9.16418 119.168 4.97703L392.611 162.682Z" fill="url(#paint2_linear_106_2)"/>
<defs>
<linearGradient id="paint0_linear_106_2" x1="551" y1="55" x2="271" y2="335" gradientUnits="userSpaceOnUse">
<stop stop-color="#888888"/>
<stop offset="1" stop-color="#555555"/>
</linearGradient>
<linearGradient id="paint1_linear_106_2" x1="351.797" y1="-3.17686" x2="0.415466" y2="392.546" gradientUnits="userSpaceOnUse">
<stop stop-color="#00B9F9"/>
<stop offset="0.0001" stop-color="#0037F9"/>
<stop offset="1" stop-color="#00FD94"/>
</linearGradient>
<linearGradient id="paint2_linear_106_2" x1="415.797" y1="-3.17686" x2="64.4155" y2="392.546" gradientUnits="userSpaceOnUse">
<stop stop-color="#00B9F9"/>
<stop offset="0.0001" stop-color="#2A52DD"/>
<stop offset="1" stop-color="#18CA80"/>
</linearGradient>
</defs>
</svg>
