<svg width="1024" height="1024" viewBox="0 0 1024 1024" fill="none" xmlns="http://www.w3.org/2000/svg">
<path d="M635 378.928C642.426 374.641 651.574 374.641 659 378.928L756.244 435.072C763.669 439.359 768.244 447.282 768.244 455.856V568.144C768.244 576.718 763.669 584.641 756.244 588.928L659 645.072C651.574 649.359 642.426 649.359 635 645.072L537.756 588.928C530.331 584.641 525.756 576.718 525.756 568.144V455.856C525.756 447.282 530.331 439.359 537.756 435.072L635 378.928Z" fill="url(#paint0_linear_106_4)"/>
<path fill-rule="evenodd" clip-rule="evenodd" d="M647 552.25C669.229 552.25 687.25 534.229 687.25 512C687.25 489.771 669.229 471.75 647 471.75C624.771 471.75 606.75 489.771 606.75 512C606.75 534.229 624.771 552.25 647 552.25ZM647 537.156C660.893 537.156 672.156 525.893 672.156 512C672.156 498.107 660.893 486.844 647 486.844C633.107 486.844 621.844 498.107 621.844 512C621.844 525.893 633.107 537.156 647 537.156Z" fill="#444444"/>
<path d="M662.094 512C662.094 520.336 655.336 527.094 647 527.094C638.664 527.094 631.906 520.336 631.906 512C631.906 503.664 638.664 496.906 647 496.906C655.336 496.906 662.094 503.664 662.094 512Z" fill="#444444"/>
<path d="M564.611 479.682C589.13 493.823 589.13 529.176 564.611 543.318L291.168 701.023C266.649 715.164 236 697.488 236 669.205L236 353.795C236 325.512 266.649 307.836 291.168 321.977L564.611 479.682Z" fill="url(#paint1_linear_106_4)" fill-opacity="0.125"/>
<path d="M628.611 479.682C653.13 493.823 653.13 529.176 628.611 543.318L355.168 701.023C330.649 715.164 300 697.488 300 669.205L300 353.795C300 325.512 330.649 307.836 355.168 321.977L628.611 479.682Z" fill="url(#paint2_linear_106_4)"/>
<defs>
<linearGradient id="paint0_linear_106_4" x1="787" y1="372" x2="507" y2="652" gradientUnits="userSpaceOnUse">
<stop stop-color="#888888"/>
<stop offset="1" stop-color="#555555"/>
</linearGradient>
<linearGradient id="paint1_linear_106_4" x1="587.797" y1="313.823" x2="236.415" y2="709.546" gradientUnits="userSpaceOnUse">
<stop stop-color="#00B9F9"/>
<stop offset="0.0001" stop-color="#0037F9"/>
<stop offset="1" stop-color="#00FD94"/>
</linearGradient>
<linearGradient id="paint2_linear_106_4" x1="651.797" y1="313.823" x2="300.415" y2="709.546" gradientUnits="userSpaceOnUse">
<stop stop-color="#00B9F9"/>
<stop offset="0.0001" stop-color="#2A52DD"/>
<stop offset="1" stop-color="#18CA80"/>
</linearGradient>
</defs>
</svg>
