<svg width="1024" height="1024" viewBox="0 0 1024 1024" fill="none" xmlns="http://www.w3.org/2000/svg">
<path d="M824.758 659.908C821.537 651.961 814.321 646.337 805.829 645.153L740 635.979V636C740 649.255 729.255 660 716 660C702.745 660 692 649.255 692 636C692 633.739 692.313 631.551 692.897 629.477C684.994 628.949 677.29 632.363 672.374 638.67L603.345 727.232C598.074 733.995 596.811 743.056 600.032 751.003L600.215 751.455C607.769 740.318 620.53 733 635 733C658.196 733 677 751.804 677 775C677 798.196 658.196 817 635 817C632.063 817 629.197 816.699 626.43 816.125L642.215 855.065C645.436 863.011 652.652 868.636 661.144 869.819L720.161 878.045C720.055 876.711 720 875.362 720 874C720 846.386 742.386 824 770 824C789.294 824 806.036 834.928 814.373 850.933L863.628 787.74C868.899 780.978 870.162 771.916 866.941 763.97L824.758 659.908Z" fill="url(#paint0_linear_4_72)"/>
<path fill-rule="evenodd" clip-rule="evenodd" d="M708.742 789.232C726.275 802.898 751.566 799.763 765.232 782.23C778.898 764.698 775.763 739.406 758.23 725.741C740.697 712.075 715.406 715.21 701.74 732.742C688.075 750.275 691.21 775.566 708.742 789.232ZM718.021 777.327C728.979 785.869 744.786 783.909 753.327 772.951C761.868 761.993 759.909 746.186 748.951 737.645C737.993 729.104 722.186 731.063 713.645 742.021C705.104 752.979 707.063 768.786 718.021 777.327Z" fill="#444444"/>
<path d="M745.391 766.765C740.266 773.34 730.782 774.516 724.207 769.391C717.632 764.266 716.457 754.782 721.582 748.207C726.706 741.633 736.19 740.457 742.765 745.582C749.34 750.706 750.516 760.191 745.391 766.765Z" fill="#444444"/>
<path d="M725.017 467C749.638 475.52 753.407 490.885 744.308 545.012M767.633 476.048C792.254 484.569 796.023 499.933 786.924 554.06" stroke="#AAAAAA" stroke-width="8" stroke-linecap="round"/>
<path d="M556.729 453.231C583.331 462.9 589.47 497.716 567.779 515.9L325.876 718.692C304.185 736.876 270.932 724.79 266.021 696.937L211.251 386.319C206.339 358.466 233.453 335.736 260.056 345.404L556.729 453.231Z" fill="url(#paint1_linear_4_72)" fill-opacity="0.125"/>
<path d="M620.729 453.231C647.331 462.9 653.47 497.716 631.779 515.9L389.876 718.692C368.185 736.876 334.932 724.79 330.021 696.937L275.251 386.319C270.339 358.466 297.453 335.736 324.056 345.404L620.729 453.231Z" fill="url(#paint2_linear_4_72)"/>
<defs>
<linearGradient id="paint0_linear_4_72" x1="929.973" y1="733.132" x2="537" y2="781.841" gradientUnits="userSpaceOnUse">
<stop stop-color="#888888"/>
<stop offset="1" stop-color="#555555"/>
</linearGradient>
<linearGradient id="paint1_linear_4_72" x1="550.762" y1="285.865" x2="273.435" y2="736.593" gradientUnits="userSpaceOnUse">
<stop stop-color="#F90000"/>
<stop offset="1" stop-color="#CA6D18"/>
</linearGradient>
<linearGradient id="paint2_linear_4_72" x1="614.762" y1="285.865" x2="337.435" y2="736.593" gradientUnits="userSpaceOnUse">
<stop stop-color="#F90000"/>
<stop offset="1" stop-color="#CA6D18"/>
</linearGradient>
</defs>
</svg>
