<svg width="1024" height="1024" viewBox="0 0 1024 1024" fill="none" xmlns="http://www.w3.org/2000/svg">
<g clip-path="url(#clip0_6_104)">
<path d="M505.076 482.117C513.65 482.117 521.574 486.691 525.861 494.116L582.009 591.357C586.297 598.783 586.297 607.931 582.01 615.357L525.871 712.603C521.584 720.029 513.662 724.604 505.087 724.604L392.8 724.609C384.226 724.61 376.302 720.036 372.015 712.61L315.867 615.369C311.579 607.944 311.579 598.795 315.866 591.369L372.005 494.123C376.292 486.697 384.215 482.123 392.789 482.122L505.076 482.117Z" fill="url(#paint0_linear_6_104)"/>
<path fill-rule="evenodd" clip-rule="evenodd" d="M428.815 638.222C448.066 649.336 472.683 642.738 483.797 623.487C494.91 604.235 488.313 579.619 469.062 568.505C449.81 557.391 425.194 563.988 414.08 583.24C402.966 602.492 409.563 627.108 428.815 638.222ZM436.361 625.15C448.393 632.096 463.778 627.973 470.725 615.94C477.671 603.908 473.548 588.523 461.515 581.577C449.483 574.631 434.098 578.754 427.152 590.786C420.205 602.818 424.329 618.204 436.361 625.15Z" fill="#444444"/>
<path d="M462.01 610.91C457.842 618.129 448.611 620.603 441.392 616.435C434.172 612.267 431.699 603.036 435.866 595.817C440.034 588.598 449.265 586.124 456.484 590.291C463.704 594.459 466.178 603.69 462.01 610.91Z" fill="#444444"/>
<path d="M393.743 534.183C407.907 558.689 390.232 589.306 361.928 589.294L46.2668 589.164C17.962 589.153 0.255981 558.521 14.3961 534.027L172.089 260.866C186.229 236.372 221.61 236.387 235.775 260.892L393.743 534.183Z" fill="url(#paint1_linear_6_104)" fill-opacity="0.125"/>
<path d="M449.17 566.181C463.334 590.686 445.659 621.304 417.354 621.292L101.694 621.162C73.3888 621.15 55.6829 590.518 69.823 566.024L227.516 292.864C241.656 268.37 277.037 268.384 291.202 292.89L449.17 566.181Z" fill="url(#paint2_linear_6_104)"/>
<path fill-rule="evenodd" clip-rule="evenodd" d="M945.419 509.353C974.761 495.411 995.046 465.503 995.046 430.857C995.046 382.887 956.158 344 908.188 344C860.219 344 821.331 382.887 821.331 430.857C821.331 465.503 841.616 495.411 870.957 509.353C825.262 524.857 792.379 568.112 792.379 619.048V648H1024V619.048C1024 568.112 991.115 524.857 945.419 509.353Z" fill="#AAAAAA"/>
<path fill-rule="evenodd" clip-rule="evenodd" d="M777.432 492.491C803.781 479.971 821.998 453.113 821.998 422C821.998 378.922 787.076 344 743.998 344C700.92 344 665.998 378.922 665.998 422C665.998 453.113 684.214 479.971 710.563 492.491C669.528 506.414 639.998 545.259 639.998 591V617H847.998V591C847.998 545.259 818.468 506.414 777.432 492.491Z" fill="#888888"/>
<path fill-rule="evenodd" clip-rule="evenodd" d="M873.148 526.758C905.578 511.349 927.998 478.293 927.998 440C927.998 386.981 885.017 344 831.998 344C778.978 344 735.998 386.981 735.998 440C735.998 478.293 758.418 511.349 790.848 526.758C740.342 543.895 703.998 591.703 703.998 648V680H959.998V648C959.998 591.703 923.653 543.895 873.148 526.758Z" fill="#D9D9D9"/>
<rect x="704" y="120" width="256" height="192" rx="16" fill="#D9D9D9"/>
<path d="M724.006 138.864L721.193 149.312H720.273L723.085 138.864H724.006ZM728.283 138.864L725.471 149.312H724.55L727.363 138.864H728.283ZM740.35 143.636C740.35 144.557 740.184 145.352 739.852 146.023C739.519 146.693 739.063 147.21 738.484 147.574C737.904 147.938 737.242 148.119 736.498 148.119C735.754 148.119 735.092 147.938 734.512 147.574C733.933 147.21 733.477 146.693 733.144 146.023C732.812 145.352 732.646 144.557 732.646 143.636C732.646 142.716 732.812 141.92 733.144 141.25C733.477 140.58 733.933 140.062 734.512 139.699C735.092 139.335 735.754 139.153 736.498 139.153C737.242 139.153 737.904 139.335 738.484 139.699C739.063 140.062 739.519 140.58 739.852 141.25C740.184 141.92 740.35 142.716 740.35 143.636ZM739.327 143.636C739.327 142.881 739.201 142.243 738.948 141.723C738.698 141.203 738.359 140.81 737.93 140.543C737.504 140.276 737.026 140.142 736.498 140.142C735.969 140.142 735.491 140.276 735.062 140.543C734.636 140.81 734.296 141.203 734.043 141.723C733.793 142.243 733.668 142.881 733.668 143.636C733.668 144.392 733.793 145.03 734.043 145.55C734.296 146.07 734.636 146.463 735.062 146.73C735.491 146.997 735.969 147.131 736.498 147.131C737.026 147.131 737.504 146.997 737.93 146.73C738.359 146.463 738.698 146.07 738.948 145.55C739.201 145.03 739.327 144.392 739.327 143.636ZM742.996 144.062V148H741.991V139.273H742.996V142.477H743.082C743.235 142.139 743.465 141.871 743.772 141.672C744.082 141.47 744.494 141.369 745.008 141.369C745.454 141.369 745.844 141.459 746.18 141.638C746.515 141.814 746.775 142.085 746.96 142.452C747.147 142.815 747.241 143.278 747.241 143.841V148H746.235V143.909C746.235 143.389 746.1 142.987 745.83 142.703C745.563 142.416 745.192 142.273 744.718 142.273C744.388 142.273 744.093 142.342 743.832 142.482C743.573 142.621 743.369 142.824 743.218 143.091C743.07 143.358 742.996 143.682 742.996 144.062ZM753.461 139.273V148H752.456V139.273H753.461ZM757.962 148.136C757.371 148.136 756.853 147.996 756.407 147.714C755.964 147.433 755.617 147.04 755.367 146.534C755.12 146.028 754.996 145.437 754.996 144.761C754.996 144.08 755.12 143.484 755.367 142.976C755.617 142.467 755.964 142.072 756.407 141.791C756.853 141.51 757.371 141.369 757.962 141.369C758.553 141.369 759.07 141.51 759.513 141.791C759.96 142.072 760.306 142.467 760.553 142.976C760.803 143.484 760.928 144.08 760.928 144.761C760.928 145.437 760.803 146.028 760.553 146.534C760.306 147.04 759.96 147.433 759.513 147.714C759.07 147.996 758.553 148.136 757.962 148.136ZM757.962 147.233C758.411 147.233 758.781 147.118 759.07 146.888C759.36 146.658 759.575 146.355 759.714 145.98C759.853 145.605 759.923 145.199 759.923 144.761C759.923 144.324 759.853 143.916 759.714 143.538C759.575 143.161 759.36 142.855 759.07 142.622C758.781 142.389 758.411 142.273 757.962 142.273C757.513 142.273 757.144 142.389 756.854 142.622C756.565 142.855 756.35 143.161 756.211 143.538C756.072 143.916 756.002 144.324 756.002 144.761C756.002 145.199 756.072 145.605 756.211 145.98C756.35 146.355 756.565 146.658 756.854 146.888C757.144 147.118 757.513 147.233 757.962 147.233ZM765.123 148.136C764.532 148.136 764.013 147.996 763.567 147.714C763.124 147.433 762.777 147.04 762.527 146.534C762.28 146.028 762.157 145.437 762.157 144.761C762.157 144.08 762.28 143.484 762.527 142.976C762.777 142.467 763.124 142.072 763.567 141.791C764.013 141.51 764.532 141.369 765.123 141.369C765.713 141.369 766.23 141.51 766.674 141.791C767.12 142.072 767.466 142.467 767.713 142.976C767.963 143.484 768.088 144.08 768.088 144.761C768.088 145.437 767.963 146.028 767.713 146.534C767.466 147.04 767.12 147.433 766.674 147.714C766.23 147.996 765.713 148.136 765.123 148.136ZM765.123 147.233C765.571 147.233 765.941 147.118 766.23 146.888C766.52 146.658 766.735 146.355 766.874 145.98C767.013 145.605 767.083 145.199 767.083 144.761C767.083 144.324 767.013 143.916 766.874 143.538C766.735 143.161 766.52 142.855 766.23 142.622C765.941 142.389 765.571 142.273 765.123 142.273C764.674 142.273 764.304 142.389 764.015 142.622C763.725 142.855 763.51 143.161 763.371 143.538C763.232 143.916 763.162 144.324 763.162 144.761C763.162 145.199 763.232 145.605 763.371 145.98C763.51 146.355 763.725 146.658 764.015 146.888C764.304 147.118 764.674 147.233 765.123 147.233ZM770.561 145.614L770.544 144.369H770.749L773.612 141.455H774.857L771.805 144.54H771.72L770.561 145.614ZM769.624 148V139.273H770.629V148H769.624ZM773.783 148L771.226 144.761L771.942 144.062L775.061 148H773.783ZM777.651 146.807L777.583 147.267C777.534 147.591 777.461 147.938 777.361 148.307C777.265 148.676 777.164 149.024 777.059 149.351C776.953 149.678 776.867 149.938 776.799 150.131H776.032C776.069 149.949 776.117 149.709 776.176 149.411C776.236 149.112 776.296 148.778 776.355 148.409C776.418 148.043 776.469 147.668 776.509 147.284L776.56 146.807H777.651ZM784.372 148L782.378 141.455H783.435L784.849 146.466H784.918L786.315 141.455H787.389L788.77 146.449H788.838L790.253 141.455H791.31L789.315 148H788.327L786.895 142.972H786.793L785.361 148H784.372ZM793.645 144.062V148H792.639V139.273H793.645V142.477H793.73C793.884 142.139 794.114 141.871 794.42 141.672C794.73 141.47 795.142 141.369 795.656 141.369C796.102 141.369 796.493 141.459 796.828 141.638C797.163 141.814 797.423 142.085 797.608 142.452C797.795 142.815 797.889 143.278 797.889 143.841V148H796.884V143.909C796.884 143.389 796.749 142.987 796.479 142.703C796.212 142.416 795.841 142.273 795.366 142.273C795.037 142.273 794.741 142.342 794.48 142.482C794.222 142.621 794.017 142.824 793.866 143.091C793.719 143.358 793.645 143.682 793.645 144.062ZM801.655 148.153C801.24 148.153 800.864 148.075 800.526 147.919C800.188 147.76 799.919 147.531 799.721 147.233C799.522 146.932 799.422 146.568 799.422 146.142C799.422 145.767 799.496 145.463 799.644 145.23C799.792 144.994 799.989 144.81 800.236 144.676C800.483 144.543 800.756 144.443 801.054 144.378C801.355 144.31 801.658 144.256 801.962 144.216C802.36 144.165 802.682 144.126 802.929 144.101C803.179 144.072 803.361 144.026 803.475 143.96C803.591 143.895 803.65 143.781 803.65 143.619V143.585C803.65 143.165 803.534 142.838 803.304 142.605C803.077 142.372 802.732 142.256 802.269 142.256C801.789 142.256 801.412 142.361 801.14 142.571C800.867 142.781 800.675 143.006 800.564 143.244L799.61 142.903C799.78 142.506 800.007 142.196 800.292 141.974C800.578 141.75 800.891 141.594 801.229 141.506C801.57 141.415 801.905 141.369 802.235 141.369C802.445 141.369 802.686 141.395 802.959 141.446C803.235 141.494 803.5 141.595 803.756 141.749C804.015 141.902 804.229 142.134 804.4 142.443C804.57 142.753 804.655 143.168 804.655 143.688V148H803.65V147.114H803.598C803.53 147.256 803.417 147.408 803.257 147.57C803.098 147.732 802.887 147.869 802.623 147.983C802.358 148.097 802.036 148.153 801.655 148.153ZM801.809 147.25C802.206 147.25 802.542 147.172 802.814 147.016C803.09 146.859 803.297 146.658 803.436 146.411C803.578 146.163 803.65 145.903 803.65 145.631V144.71C803.607 144.761 803.513 144.808 803.368 144.851C803.226 144.891 803.061 144.926 802.874 144.957C802.689 144.986 802.509 145.011 802.333 145.034C802.159 145.054 802.019 145.071 801.911 145.085C801.65 145.119 801.405 145.175 801.178 145.251C800.953 145.325 800.772 145.437 800.632 145.588C800.496 145.736 800.428 145.937 800.428 146.193C800.428 146.543 800.557 146.807 800.816 146.986C801.077 147.162 801.408 147.25 801.809 147.25ZM809.337 141.455V142.307H805.945V141.455H809.337ZM806.934 139.886H807.94V146.125C807.94 146.409 807.981 146.622 808.063 146.764C808.148 146.903 808.256 146.997 808.387 147.045C808.521 147.091 808.661 147.114 808.809 147.114C808.92 147.114 809.011 147.108 809.082 147.097C809.153 147.082 809.21 147.071 809.252 147.062L809.457 147.966C809.388 147.991 809.293 148.017 809.171 148.043C809.049 148.071 808.894 148.085 808.707 148.085C808.423 148.085 808.144 148.024 807.871 147.902C807.602 147.78 807.377 147.594 807.198 147.344C807.022 147.094 806.934 146.778 806.934 146.398V139.886ZM812.076 139.273V140.04C812.076 140.273 812.034 140.521 811.949 140.786C811.866 141.047 811.744 141.301 811.582 141.548C811.423 141.793 811.23 142.006 811.002 142.188L810.457 141.744C810.636 141.489 810.791 141.223 810.922 140.947C811.055 140.669 811.122 140.372 811.122 140.057V139.273H812.076ZM817.115 142.92L816.212 143.176C816.155 143.026 816.071 142.879 815.961 142.737C815.853 142.592 815.705 142.473 815.517 142.379C815.33 142.286 815.09 142.239 814.797 142.239C814.397 142.239 814.063 142.331 813.796 142.516C813.532 142.697 813.4 142.929 813.4 143.21C813.4 143.46 813.49 143.658 813.672 143.803C813.854 143.947 814.138 144.068 814.525 144.165L815.496 144.403C816.081 144.545 816.517 144.763 816.804 145.055C817.091 145.345 817.235 145.719 817.235 146.176C817.235 146.551 817.127 146.886 816.911 147.182C816.698 147.477 816.4 147.71 816.016 147.881C815.632 148.051 815.186 148.136 814.678 148.136C814.01 148.136 813.458 147.991 813.02 147.702C812.583 147.412 812.306 146.989 812.189 146.432L813.144 146.193C813.235 146.545 813.407 146.81 813.659 146.986C813.915 147.162 814.249 147.25 814.661 147.25C815.13 147.25 815.502 147.151 815.777 146.952C816.056 146.75 816.195 146.509 816.195 146.227C816.195 146 816.115 145.81 815.956 145.656C815.797 145.5 815.553 145.384 815.223 145.307L814.132 145.051C813.533 144.909 813.093 144.689 812.811 144.391C812.533 144.089 812.394 143.713 812.394 143.261C812.394 142.892 812.498 142.565 812.705 142.281C812.915 141.997 813.201 141.774 813.561 141.612C813.925 141.45 814.337 141.369 814.797 141.369C815.445 141.369 815.953 141.511 816.323 141.795C816.695 142.08 816.959 142.455 817.115 142.92ZM824.97 141.455V142.307H821.578V141.455H824.97ZM822.567 139.886H823.572V146.125C823.572 146.409 823.614 146.622 823.696 146.764C823.781 146.903 823.889 146.997 824.02 147.045C824.153 147.091 824.294 147.114 824.442 147.114C824.553 147.114 824.643 147.108 824.714 147.097C824.786 147.082 824.842 147.071 824.885 147.062L825.089 147.966C825.021 147.991 824.926 148.017 824.804 148.043C824.682 148.071 824.527 148.085 824.339 148.085C824.055 148.085 823.777 148.024 823.504 147.902C823.234 147.78 823.01 147.594 822.831 147.344C822.655 147.094 822.567 146.778 822.567 146.398V139.886ZM827.629 144.062V148H826.624V139.273H827.629V142.477H827.714C827.868 142.139 828.098 141.871 828.405 141.672C828.714 141.47 829.126 141.369 829.641 141.369C830.087 141.369 830.477 141.459 830.812 141.638C831.148 141.814 831.408 142.085 831.592 142.452C831.78 142.815 831.874 143.278 831.874 143.841V148H830.868V143.909C830.868 143.389 830.733 142.987 830.463 142.703C830.196 142.416 829.825 142.273 829.351 142.273C829.021 142.273 828.726 142.342 828.464 142.482C828.206 142.621 828.001 142.824 827.851 143.091C827.703 143.358 827.629 143.682 827.629 144.062ZM833.713 148V141.455H834.719V148H833.713ZM834.225 140.364C834.029 140.364 833.86 140.297 833.718 140.163C833.578 140.03 833.509 139.869 833.509 139.682C833.509 139.494 833.578 139.334 833.718 139.2C833.86 139.067 834.029 139 834.225 139C834.421 139 834.588 139.067 834.728 139.2C834.87 139.334 834.941 139.494 834.941 139.682C834.941 139.869 834.87 140.03 834.728 140.163C834.588 140.297 834.421 140.364 834.225 140.364ZM841.197 142.92L840.294 143.176C840.237 143.026 840.153 142.879 840.043 142.737C839.935 142.592 839.787 142.473 839.599 142.379C839.412 142.286 839.172 142.239 838.879 142.239C838.479 142.239 838.145 142.331 837.878 142.516C837.614 142.697 837.482 142.929 837.482 143.21C837.482 143.46 837.572 143.658 837.754 143.803C837.936 143.947 838.22 144.068 838.607 144.165L839.578 144.403C840.163 144.545 840.599 144.763 840.886 145.055C841.173 145.345 841.317 145.719 841.317 146.176C841.317 146.551 841.209 146.886 840.993 147.182C840.78 147.477 840.482 147.71 840.098 147.881C839.714 148.051 839.268 148.136 838.76 148.136C838.092 148.136 837.54 147.991 837.102 147.702C836.665 147.412 836.388 146.989 836.271 146.432L837.226 146.193C837.317 146.545 837.489 146.81 837.741 146.986C837.997 147.162 838.331 147.25 838.743 147.25C839.212 147.25 839.584 147.151 839.859 146.952C840.138 146.75 840.277 146.509 840.277 146.227C840.277 146 840.197 145.81 840.038 145.656C839.879 145.5 839.635 145.384 839.305 145.307L838.214 145.051C837.615 144.909 837.175 144.689 836.893 144.391C836.615 144.089 836.476 143.713 836.476 143.261C836.476 142.892 836.58 142.565 836.787 142.281C836.997 141.997 837.283 141.774 837.643 141.612C838.007 141.45 838.419 141.369 838.879 141.369C839.527 141.369 840.036 141.511 840.405 141.795C840.777 142.08 841.041 142.455 841.197 142.92ZM844.143 145.545V145.494C844.149 144.952 844.206 144.52 844.314 144.199C844.422 143.878 844.575 143.618 844.774 143.419C844.973 143.22 845.211 143.037 845.49 142.869C845.657 142.767 845.808 142.646 845.941 142.507C846.075 142.365 846.18 142.202 846.257 142.017C846.336 141.832 846.376 141.628 846.376 141.403C846.376 141.125 846.311 140.884 846.18 140.679C846.049 140.474 845.875 140.317 845.656 140.206C845.437 140.095 845.194 140.04 844.927 140.04C844.694 140.04 844.47 140.088 844.254 140.185C844.038 140.281 843.858 140.433 843.713 140.641C843.568 140.848 843.484 141.119 843.461 141.455H842.387C842.41 140.972 842.535 140.558 842.762 140.214C842.993 139.871 843.295 139.608 843.67 139.426C844.048 139.244 844.467 139.153 844.927 139.153C845.427 139.153 845.862 139.253 846.231 139.452C846.603 139.651 846.89 139.923 847.092 140.27C847.297 140.616 847.399 141.011 847.399 141.455C847.399 141.767 847.35 142.05 847.254 142.303C847.16 142.555 847.024 142.781 846.845 142.98C846.669 143.179 846.456 143.355 846.206 143.509C845.956 143.665 845.755 143.83 845.605 144.003C845.454 144.173 845.345 144.376 845.277 144.612C845.208 144.848 845.172 145.142 845.166 145.494V145.545H844.143ZM844.689 148.068C844.478 148.068 844.298 147.993 844.147 147.842C843.997 147.692 843.922 147.511 843.922 147.301C843.922 147.091 843.997 146.911 844.147 146.76C844.298 146.609 844.478 146.534 844.689 146.534C844.899 146.534 845.079 146.609 845.23 146.76C845.38 146.911 845.456 147.091 845.456 147.301C845.456 147.44 845.42 147.568 845.349 147.685C845.281 147.801 845.189 147.895 845.072 147.966C844.958 148.034 844.831 148.068 844.689 148.068Z" fill="#0E6100"/>
<path d="M723.835 159.455V160.307H720.307V159.455H723.835ZM721.364 166V158.551C721.364 158.176 721.452 157.864 721.628 157.614C721.804 157.364 722.033 157.176 722.314 157.051C722.595 156.926 722.892 156.864 723.205 156.864C723.452 156.864 723.653 156.884 723.81 156.923C723.966 156.963 724.082 157 724.159 157.034L723.869 157.903C723.818 157.886 723.747 157.865 723.656 157.839C723.568 157.814 723.452 157.801 723.307 157.801C722.974 157.801 722.734 157.885 722.587 158.053C722.442 158.22 722.369 158.466 722.369 158.79V166H721.364ZM729.37 163.324V159.455H730.375V166H729.37V164.892H729.301C729.148 165.224 728.909 165.507 728.586 165.74C728.262 165.97 727.853 166.085 727.358 166.085C726.949 166.085 726.586 165.996 726.267 165.817C725.949 165.635 725.699 165.362 725.517 164.999C725.336 164.632 725.245 164.17 725.245 163.614V159.455H726.25V163.545C726.25 164.023 726.384 164.403 726.651 164.688C726.921 164.972 727.265 165.114 727.682 165.114C727.932 165.114 728.186 165.05 728.445 164.922C728.706 164.794 728.925 164.598 729.101 164.334C729.28 164.07 729.37 163.733 729.37 163.324ZM733.223 162.062V166H732.217V159.455H733.189V160.477H733.274C733.428 160.145 733.661 159.878 733.973 159.676C734.286 159.472 734.689 159.369 735.183 159.369C735.626 159.369 736.014 159.46 736.347 159.642C736.679 159.821 736.938 160.094 737.122 160.46C737.307 160.824 737.399 161.284 737.399 161.841V166H736.393V161.909C736.393 161.395 736.26 160.994 735.993 160.707C735.726 160.418 735.359 160.273 734.893 160.273C734.572 160.273 734.286 160.342 734.033 160.482C733.783 160.621 733.585 160.824 733.44 161.091C733.295 161.358 733.223 161.682 733.223 162.062ZM741.896 166.136C741.282 166.136 740.754 165.991 740.311 165.702C739.868 165.412 739.527 165.013 739.288 164.504C739.049 163.996 738.93 163.415 738.93 162.761C738.93 162.097 739.052 161.51 739.297 161.001C739.544 160.49 739.887 160.091 740.328 159.804C740.771 159.514 741.288 159.369 741.879 159.369C742.339 159.369 742.754 159.455 743.123 159.625C743.493 159.795 743.795 160.034 744.031 160.341C744.267 160.648 744.413 161.006 744.47 161.415H743.464C743.387 161.116 743.217 160.852 742.953 160.622C742.691 160.389 742.339 160.273 741.896 160.273C741.504 160.273 741.16 160.375 740.865 160.58C740.572 160.781 740.343 161.067 740.179 161.436C740.017 161.803 739.936 162.233 739.936 162.727C739.936 163.233 740.015 163.673 740.174 164.048C740.336 164.423 740.564 164.714 740.856 164.922C741.152 165.129 741.498 165.233 741.896 165.233C742.157 165.233 742.395 165.188 742.608 165.097C742.821 165.006 743.001 164.875 743.149 164.705C743.297 164.534 743.402 164.33 743.464 164.091H744.47C744.413 164.477 744.272 164.825 744.048 165.135C743.826 165.442 743.532 165.686 743.166 165.868C742.802 166.047 742.379 166.136 741.896 166.136ZM748.787 159.455V160.307H745.395V159.455H748.787ZM746.383 157.886H747.389V164.125C747.389 164.409 747.43 164.622 747.512 164.764C747.598 164.903 747.706 164.997 747.836 165.045C747.97 165.091 748.11 165.114 748.258 165.114C748.369 165.114 748.46 165.108 748.531 165.097C748.602 165.082 748.659 165.071 748.701 165.062L748.906 165.966C748.838 165.991 748.743 166.017 748.62 166.043C748.498 166.071 748.343 166.085 748.156 166.085C747.872 166.085 747.593 166.024 747.321 165.902C747.051 165.78 746.826 165.594 746.647 165.344C746.471 165.094 746.383 164.778 746.383 164.398V157.886ZM750.299 166V159.455H751.305V166H750.299ZM750.811 158.364C750.615 158.364 750.446 158.297 750.304 158.163C750.164 158.03 750.095 157.869 750.095 157.682C750.095 157.494 750.164 157.334 750.304 157.2C750.446 157.067 750.615 157 750.811 157C751.007 157 751.174 157.067 751.314 157.2C751.456 157.334 751.527 157.494 751.527 157.682C751.527 157.869 751.456 158.03 751.314 158.163C751.174 158.297 751.007 158.364 750.811 158.364ZM755.806 166.136C755.215 166.136 754.697 165.996 754.251 165.714C753.808 165.433 753.461 165.04 753.211 164.534C752.964 164.028 752.84 163.437 752.84 162.761C752.84 162.08 752.964 161.484 753.211 160.976C753.461 160.467 753.808 160.072 754.251 159.791C754.697 159.51 755.215 159.369 755.806 159.369C756.397 159.369 756.914 159.51 757.357 159.791C757.803 160.072 758.15 160.467 758.397 160.976C758.647 161.484 758.772 162.08 758.772 162.761C758.772 163.437 758.647 164.028 758.397 164.534C758.15 165.04 757.803 165.433 757.357 165.714C756.914 165.996 756.397 166.136 755.806 166.136ZM755.806 165.233C756.255 165.233 756.624 165.118 756.914 164.888C757.204 164.658 757.418 164.355 757.558 163.98C757.697 163.605 757.766 163.199 757.766 162.761C757.766 162.324 757.697 161.916 757.558 161.538C757.418 161.161 757.204 160.855 756.914 160.622C756.624 160.389 756.255 160.273 755.806 160.273C755.357 160.273 754.988 160.389 754.698 160.622C754.408 160.855 754.194 161.161 754.055 161.538C753.915 161.916 753.846 162.324 753.846 162.761C753.846 163.199 753.915 163.605 754.055 163.98C754.194 164.355 754.408 164.658 754.698 164.888C754.988 165.118 755.357 165.233 755.806 165.233ZM761.313 162.062V166H760.307V159.455H761.279V160.477H761.364C761.517 160.145 761.75 159.878 762.063 159.676C762.375 159.472 762.779 159.369 763.273 159.369C763.716 159.369 764.104 159.46 764.436 159.642C764.769 159.821 765.027 160.094 765.212 160.46C765.397 160.824 765.489 161.284 765.489 161.841V166H764.483V161.909C764.483 161.395 764.35 160.994 764.083 160.707C763.816 160.418 763.449 160.273 762.983 160.273C762.662 160.273 762.375 160.342 762.123 160.482C761.873 160.621 761.675 160.824 761.53 161.091C761.385 161.358 761.313 161.682 761.313 162.062Z" fill="#001F8C"/>
<path d="M833.931 162.318C833.931 161.244 834.07 160.257 834.348 159.357C834.63 158.453 835.03 157.622 835.55 156.864H836.436C836.232 157.145 836.04 157.491 835.861 157.903C835.685 158.312 835.53 158.763 835.397 159.254C835.263 159.743 835.158 160.249 835.081 160.771C835.007 161.294 834.971 161.81 834.971 162.318C834.971 162.994 835.036 163.68 835.167 164.376C835.297 165.072 835.473 165.719 835.695 166.315C835.917 166.912 836.164 167.398 836.436 167.773H835.55C835.03 167.014 834.63 166.185 834.348 165.284C834.07 164.381 833.931 163.392 833.931 162.318ZM840.068 162.318C840.068 163.392 839.928 164.381 839.646 165.284C839.368 166.185 838.969 167.014 838.449 167.773H837.562C837.767 167.491 837.957 167.145 838.134 166.733C838.313 166.324 838.469 165.875 838.602 165.386C838.736 164.895 838.839 164.388 838.913 163.865C838.99 163.339 839.028 162.824 839.028 162.318C839.028 161.642 838.963 160.956 838.832 160.26C838.702 159.564 838.526 158.918 838.304 158.321C838.082 157.724 837.835 157.239 837.562 156.864H838.449C838.969 157.622 839.368 158.453 839.646 159.357C839.928 160.257 840.068 161.244 840.068 162.318ZM845.166 162.335V161.807C845.64 161.807 845.971 161.707 846.159 161.509C846.349 161.31 846.444 160.977 846.444 160.511V159.148C846.444 158.756 846.481 158.416 846.555 158.129C846.632 157.842 846.755 157.605 846.926 157.418C847.096 157.23 847.324 157.091 847.608 157C847.892 156.909 848.243 156.864 848.66 156.864V157.699C848.331 157.699 848.071 157.75 847.88 157.852C847.693 157.955 847.559 158.114 847.48 158.33C847.403 158.543 847.365 158.815 847.365 159.148V160.852C847.365 161.074 847.335 161.276 847.275 161.457C847.218 161.639 847.112 161.795 846.956 161.926C846.799 162.057 846.576 162.158 846.287 162.229C846 162.3 845.626 162.335 845.166 162.335ZM848.66 167.773C848.243 167.773 847.892 167.727 847.608 167.636C847.324 167.545 847.096 167.406 846.926 167.219C846.755 167.031 846.632 166.794 846.555 166.507C846.481 166.22 846.444 165.881 846.444 165.489V164.125C846.444 163.659 846.349 163.327 846.159 163.128C845.971 162.929 845.64 162.83 845.166 162.83V162.301C845.626 162.301 846 162.337 846.287 162.408C846.576 162.479 846.799 162.58 846.956 162.71C847.112 162.841 847.218 162.997 847.275 163.179C847.335 163.361 847.365 163.562 847.365 163.784V165.489C847.365 165.821 847.403 166.094 847.48 166.307C847.559 166.52 847.693 166.678 847.88 166.78C848.071 166.885 848.331 166.938 848.66 166.938V167.773ZM845.166 162.83V161.807H846.172V162.83H845.166ZM772.22 177.318C772.22 176.244 772.359 175.257 772.637 174.357C772.919 173.453 773.319 172.622 773.839 171.864H774.725C774.521 172.145 774.329 172.491 774.15 172.903C773.974 173.312 773.819 173.763 773.686 174.254C773.552 174.743 773.447 175.249 773.37 175.771C773.297 176.294 773.26 176.81 773.26 177.318C773.26 177.994 773.325 178.68 773.456 179.376C773.586 180.072 773.762 180.719 773.984 181.315C774.206 181.912 774.453 182.398 774.725 182.773H773.839C773.319 182.014 772.919 181.185 772.637 180.284C772.359 179.381 772.22 178.392 772.22 177.318ZM748.21 192.932V192.25L753.699 189.455V190.545L749.489 192.574L749.523 192.506V192.676L749.489 192.608L753.699 194.636V195.727L748.21 192.932ZM812.673 196.068C812.463 196.068 812.282 195.993 812.132 195.842C811.981 195.692 811.906 195.511 811.906 195.301C811.906 195.091 811.981 194.911 812.132 194.76C812.282 194.609 812.463 194.534 812.673 194.534C812.883 194.534 813.064 194.609 813.214 194.76C813.365 194.911 813.44 195.091 813.44 195.301C813.44 195.44 813.404 195.568 813.333 195.685C813.265 195.801 813.173 195.895 813.056 195.966C812.943 196.034 812.815 196.068 812.673 196.068ZM815.978 196.068C815.767 196.068 815.587 195.993 815.436 195.842C815.286 195.692 815.211 195.511 815.211 195.301C815.211 195.091 815.286 194.911 815.436 194.76C815.587 194.609 815.767 194.534 815.978 194.534C816.188 194.534 816.368 194.609 816.519 194.76C816.669 194.911 816.745 195.091 816.745 195.301C816.745 195.44 816.709 195.568 816.638 195.685C816.57 195.801 816.478 195.895 816.361 195.966C816.248 196.034 816.12 196.068 815.978 196.068ZM819.282 196.068C819.072 196.068 818.892 195.993 818.741 195.842C818.591 195.692 818.515 195.511 818.515 195.301C818.515 195.091 818.591 194.911 818.741 194.76C818.892 194.609 819.072 194.534 819.282 194.534C819.493 194.534 819.673 194.609 819.824 194.76C819.974 194.911 820.049 195.091 820.049 195.301C820.049 195.44 820.014 195.568 819.943 195.685C819.875 195.801 819.782 195.895 819.666 195.966C819.552 196.034 819.424 196.068 819.282 196.068ZM825.962 196.068C825.752 196.068 825.571 195.993 825.421 195.842C825.27 195.692 825.195 195.511 825.195 195.301C825.195 195.091 825.27 194.911 825.421 194.76C825.571 194.609 825.752 194.534 825.962 194.534C826.172 194.534 826.353 194.609 826.503 194.76C826.654 194.911 826.729 195.091 826.729 195.301C826.729 195.44 826.694 195.568 826.623 195.685C826.554 195.801 826.462 195.895 826.346 195.966C826.232 196.034 826.104 196.068 825.962 196.068ZM829.267 196.068C829.056 196.068 828.876 195.993 828.725 195.842C828.575 195.692 828.5 195.511 828.5 195.301C828.5 195.091 828.575 194.911 828.725 194.76C828.876 194.609 829.056 194.534 829.267 194.534C829.477 194.534 829.657 194.609 829.808 194.76C829.958 194.911 830.034 195.091 830.034 195.301C830.034 195.44 829.998 195.568 829.927 195.685C829.859 195.801 829.767 195.895 829.65 195.966C829.537 196.034 829.409 196.068 829.267 196.068ZM832.571 196.068C832.361 196.068 832.181 195.993 832.03 195.842C831.88 195.692 831.804 195.511 831.804 195.301C831.804 195.091 831.88 194.911 832.03 194.76C832.181 194.609 832.361 194.534 832.571 194.534C832.782 194.534 832.962 194.609 833.113 194.76C833.263 194.911 833.338 195.091 833.338 195.301C833.338 195.44 833.303 195.568 833.232 195.685C833.164 195.801 833.071 195.895 832.955 195.966C832.841 196.034 832.713 196.068 832.571 196.068ZM839.251 196.068C839.041 196.068 838.86 195.993 838.71 195.842C838.559 195.692 838.484 195.511 838.484 195.301C838.484 195.091 838.559 194.911 838.71 194.76C838.86 194.609 839.041 194.534 839.251 194.534C839.461 194.534 839.642 194.609 839.792 194.76C839.943 194.911 840.018 195.091 840.018 195.301C840.018 195.44 839.983 195.568 839.912 195.685C839.843 195.801 839.751 195.895 839.635 195.966C839.521 196.034 839.393 196.068 839.251 196.068ZM842.556 196.068C842.346 196.068 842.165 195.993 842.015 195.842C841.864 195.692 841.789 195.511 841.789 195.301C841.789 195.091 841.864 194.911 842.015 194.76C842.165 194.609 842.346 194.534 842.556 194.534C842.766 194.534 842.946 194.609 843.097 194.76C843.248 194.911 843.323 195.091 843.323 195.301C843.323 195.44 843.287 195.568 843.216 195.685C843.148 195.801 843.056 195.895 842.939 195.966C842.826 196.034 842.698 196.068 842.556 196.068ZM845.86 196.068C845.65 196.068 845.47 195.993 845.319 195.842C845.169 195.692 845.093 195.511 845.093 195.301C845.093 195.091 845.169 194.911 845.319 194.76C845.47 194.609 845.65 194.534 845.86 194.534C846.071 194.534 846.251 194.609 846.402 194.76C846.552 194.911 846.627 195.091 846.627 195.301C846.627 195.44 846.592 195.568 846.521 195.685C846.453 195.801 846.36 195.895 846.244 195.966C846.13 196.034 846.002 196.068 845.86 196.068ZM854.892 186.864L852.08 197.312H851.159L853.972 186.864H854.892ZM861.863 192.932L856.374 195.727V194.636L860.585 192.608L860.55 192.676V192.506L860.585 192.574L856.374 190.545V189.455L861.863 192.25V192.932ZM748.21 210.932V210.25L753.699 207.455V208.545L749.489 210.574L749.523 210.506V210.676L749.489 210.608L753.699 212.636V213.727L748.21 210.932ZM814.554 210.114L809.066 212.909V211.818L813.276 209.79L813.242 209.858V209.688L813.276 209.756L809.066 207.727V206.636L814.554 209.432V210.114ZM817.18 214H816.072L819.277 205.273H820.368L823.572 214H822.464L819.857 206.653H819.788L817.18 214ZM817.589 210.591H822.055V211.528H817.589V210.591ZM824.932 214V205.273H825.938V208.494H826.023C826.097 208.381 826.199 208.236 826.33 208.06C826.463 207.881 826.653 207.722 826.901 207.582C827.151 207.44 827.489 207.369 827.915 207.369C828.466 207.369 828.952 207.507 829.372 207.783C829.793 208.058 830.121 208.449 830.357 208.955C830.592 209.46 830.71 210.057 830.71 210.744C830.71 211.438 830.592 212.038 830.357 212.547C830.121 213.053 829.794 213.445 829.376 213.723C828.959 213.999 828.477 214.136 827.932 214.136C827.511 214.136 827.175 214.067 826.922 213.928C826.669 213.786 826.474 213.625 826.338 213.446C826.202 213.264 826.097 213.114 826.023 212.994H825.903V214H824.932ZM825.92 210.727C825.92 211.222 825.993 211.658 826.138 212.036C826.283 212.411 826.494 212.705 826.773 212.918C827.051 213.128 827.392 213.233 827.795 213.233C828.216 213.233 828.567 213.122 828.848 212.901C829.132 212.676 829.345 212.375 829.487 211.997C829.632 211.616 829.705 211.193 829.705 210.727C829.705 210.267 829.634 209.852 829.491 209.483C829.352 209.111 829.141 208.817 828.857 208.601C828.575 208.382 828.222 208.273 827.795 208.273C827.386 208.273 827.043 208.376 826.764 208.584C826.486 208.788 826.276 209.075 826.134 209.445C825.991 209.811 825.92 210.239 825.92 210.727ZM834.908 214.136C834.317 214.136 833.798 213.996 833.352 213.714C832.909 213.433 832.562 213.04 832.312 212.534C832.065 212.028 831.942 211.437 831.942 210.761C831.942 210.08 832.065 209.484 832.312 208.976C832.562 208.467 832.909 208.072 833.352 207.791C833.798 207.51 834.317 207.369 834.908 207.369C835.499 207.369 836.016 207.51 836.459 207.791C836.905 208.072 837.251 208.467 837.499 208.976C837.749 209.484 837.874 210.08 837.874 210.761C837.874 211.437 837.749 212.028 837.499 212.534C837.251 213.04 836.905 213.433 836.459 213.714C836.016 213.996 835.499 214.136 834.908 214.136ZM834.908 213.233C835.357 213.233 835.726 213.118 836.016 212.888C836.305 212.658 836.52 212.355 836.659 211.98C836.798 211.605 836.868 211.199 836.868 210.761C836.868 210.324 836.798 209.916 836.659 209.538C836.52 209.161 836.305 208.855 836.016 208.622C835.726 208.389 835.357 208.273 834.908 208.273C834.459 208.273 834.089 208.389 833.8 208.622C833.51 208.855 833.295 209.161 833.156 209.538C833.017 209.916 832.947 210.324 832.947 210.761C832.947 211.199 833.017 211.605 833.156 211.98C833.295 212.355 833.51 212.658 833.8 212.888C834.089 213.118 834.459 213.233 834.908 213.233ZM843.534 211.324V207.455H844.539V214H843.534V212.892H843.466C843.312 213.224 843.074 213.507 842.75 213.74C842.426 213.97 842.017 214.085 841.522 214.085C841.113 214.085 840.75 213.996 840.431 213.817C840.113 213.635 839.863 213.362 839.681 212.999C839.5 212.632 839.409 212.17 839.409 211.614V207.455H840.414V211.545C840.414 212.023 840.548 212.403 840.815 212.688C841.085 212.972 841.429 213.114 841.846 213.114C842.096 213.114 842.35 213.05 842.609 212.922C842.87 212.794 843.089 212.598 843.265 212.334C843.444 212.07 843.534 211.733 843.534 211.324ZM849.228 207.455V208.307H845.836V207.455H849.228ZM846.825 205.886H847.83V212.125C847.83 212.409 847.871 212.622 847.954 212.764C848.039 212.903 848.147 212.997 848.278 213.045C848.411 213.091 848.552 213.114 848.7 213.114C848.81 213.114 848.901 213.108 848.972 213.097C849.043 213.082 849.1 213.071 849.143 213.062L849.347 213.966C849.279 213.991 849.184 214.017 849.062 214.043C848.94 214.071 848.785 214.085 848.597 214.085C848.313 214.085 848.035 214.024 847.762 213.902C847.492 213.78 847.268 213.594 847.089 213.344C846.913 213.094 846.825 212.778 846.825 212.398V205.886ZM850.691 210.932V210.25L856.179 207.455V208.545L851.969 210.574L852.003 210.506V210.676L851.969 210.608L856.179 212.636V213.727L850.691 210.932ZM861.396 204.864L858.584 215.312H857.663L860.476 204.864H861.396ZM921.312 210.932L915.824 213.727V212.636L920.034 210.608L920 210.676V210.506L920.034 210.574L915.824 208.545V207.455L921.312 210.25V210.932ZM748.21 225.932V225.25L753.699 222.455V223.545L749.489 225.574L749.523 225.506V225.676L749.489 225.608L753.699 227.636V228.727L748.21 225.932ZM781.836 225.932L776.347 228.727V227.636L780.557 225.608L780.523 225.676V225.506L780.557 225.574L776.347 223.545V222.455L781.836 225.25V225.932ZM761.71 240.932V240.25L767.199 237.455V238.545L762.989 240.574L763.023 240.506V240.676L762.989 240.608L767.199 242.636V243.727L761.71 240.932ZM799.66 240.114L794.171 242.909V241.818L798.381 239.79L798.347 239.858V239.688L798.381 239.756L794.171 237.727V236.636L799.66 239.432V240.114ZM801.928 244V235.273H804.877C805.561 235.273 806.121 235.396 806.556 235.643C806.993 235.888 807.317 236.219 807.527 236.636C807.738 237.054 807.843 237.52 807.843 238.034C807.843 238.548 807.738 239.016 807.527 239.436C807.32 239.857 806.999 240.192 806.564 240.442C806.13 240.689 805.573 240.812 804.894 240.812H802.78V239.875H804.86C805.328 239.875 805.705 239.794 805.989 239.632C806.273 239.47 806.479 239.251 806.607 238.976C806.738 238.697 806.803 238.384 806.803 238.034C806.803 237.685 806.738 237.372 806.607 237.097C806.479 236.821 806.272 236.605 805.985 236.449C805.698 236.29 805.317 236.21 804.843 236.21H802.985V244H801.928ZM811.335 244.153C810.92 244.153 810.544 244.075 810.206 243.919C809.868 243.76 809.599 243.531 809.4 243.233C809.201 242.932 809.102 242.568 809.102 242.142C809.102 241.767 809.176 241.463 809.324 241.23C809.471 240.994 809.669 240.81 809.916 240.676C810.163 240.543 810.436 240.443 810.734 240.378C811.035 240.31 811.338 240.256 811.642 240.216C812.039 240.165 812.362 240.126 812.609 240.101C812.859 240.072 813.041 240.026 813.154 239.96C813.271 239.895 813.329 239.781 813.329 239.619V239.585C813.329 239.165 813.214 238.838 812.984 238.605C812.757 238.372 812.412 238.256 811.949 238.256C811.468 238.256 811.092 238.361 810.819 238.571C810.547 238.781 810.355 239.006 810.244 239.244L809.289 238.903C809.46 238.506 809.687 238.196 809.971 237.974C810.258 237.75 810.571 237.594 810.909 237.506C811.25 237.415 811.585 237.369 811.914 237.369C812.125 237.369 812.366 237.395 812.639 237.446C812.914 237.494 813.18 237.595 813.436 237.749C813.694 237.902 813.909 238.134 814.079 238.443C814.25 238.753 814.335 239.168 814.335 239.688V244H813.329V243.114H813.278C813.21 243.256 813.096 243.408 812.937 243.57C812.778 243.732 812.566 243.869 812.302 243.983C812.038 244.097 811.716 244.153 811.335 244.153ZM811.488 243.25C811.886 243.25 812.221 243.172 812.494 243.016C812.77 242.859 812.977 242.658 813.116 242.411C813.258 242.163 813.329 241.903 813.329 241.631V240.71C813.287 240.761 813.193 240.808 813.048 240.851C812.906 240.891 812.741 240.926 812.554 240.957C812.369 240.986 812.189 241.011 812.012 241.034C811.839 241.054 811.699 241.071 811.591 241.085C811.329 241.119 811.085 241.175 810.858 241.251C810.633 241.325 810.451 241.437 810.312 241.588C810.176 241.736 810.108 241.937 810.108 242.193C810.108 242.543 810.237 242.807 810.495 242.986C810.757 243.162 811.088 243.25 811.488 243.25ZM817.176 235.273V244H816.17V235.273H817.176ZM819.018 244V237.455H819.99V238.477H820.075C820.211 238.128 820.431 237.857 820.735 237.663C821.039 237.467 821.404 237.369 821.831 237.369C822.262 237.369 822.622 237.467 822.909 237.663C823.199 237.857 823.424 238.128 823.586 238.477H823.654C823.822 238.139 824.074 237.871 824.409 237.672C824.744 237.47 825.146 237.369 825.615 237.369C826.2 237.369 826.679 237.553 827.051 237.919C827.423 238.283 827.609 238.849 827.609 239.619V244H826.603V239.619C826.603 239.136 826.471 238.791 826.207 238.584C825.943 238.376 825.632 238.273 825.274 238.273C824.814 238.273 824.457 238.412 824.204 238.69C823.951 238.966 823.825 239.315 823.825 239.739V244H822.802V239.517C822.802 239.145 822.681 238.845 822.44 238.618C822.199 238.388 821.887 238.273 821.507 238.273C821.245 238.273 821.001 238.342 820.774 238.482C820.549 238.621 820.368 238.814 820.228 239.061C820.092 239.305 820.024 239.588 820.024 239.909V244H819.018ZM832.277 244H829.584V235.273H832.397C833.243 235.273 833.968 235.447 834.57 235.797C835.172 236.143 835.634 236.642 835.955 237.293C836.276 237.94 836.436 238.716 836.436 239.619C836.436 240.528 836.275 241.311 835.951 241.967C835.627 242.621 835.155 243.124 834.536 243.476C833.917 243.825 833.164 244 832.277 244ZM830.641 243.062H832.209C832.931 243.062 833.529 242.923 834.003 242.645C834.478 242.366 834.831 241.97 835.064 241.456C835.297 240.942 835.414 240.33 835.414 239.619C835.414 238.915 835.299 238.308 835.069 237.8C834.838 237.288 834.495 236.896 834.037 236.624C833.58 236.348 833.01 236.21 832.328 236.21H830.641V243.062ZM840.817 244.136C840.186 244.136 839.642 243.997 839.185 243.719C838.73 243.438 838.38 243.045 838.132 242.543C837.888 242.037 837.766 241.449 837.766 240.778C837.766 240.108 837.888 239.517 838.132 239.006C838.38 238.491 838.723 238.091 839.164 237.804C839.607 237.514 840.124 237.369 840.715 237.369C841.056 237.369 841.392 237.426 841.725 237.54C842.057 237.653 842.36 237.838 842.632 238.094C842.905 238.347 843.123 238.682 843.284 239.099C843.446 239.517 843.527 240.031 843.527 240.642V241.068H838.482V240.199H842.505C842.505 239.83 842.431 239.5 842.283 239.21C842.138 238.92 841.931 238.692 841.661 238.524C841.394 238.357 841.078 238.273 840.715 238.273C840.314 238.273 839.968 238.372 839.675 238.571C839.385 238.767 839.162 239.023 839.006 239.338C838.85 239.653 838.772 239.991 838.772 240.352V240.932C838.772 241.426 838.857 241.845 839.027 242.189C839.201 242.53 839.441 242.79 839.748 242.969C840.054 243.145 840.411 243.233 840.817 243.233C841.081 243.233 841.32 243.196 841.533 243.122C841.749 243.045 841.935 242.932 842.091 242.781C842.248 242.628 842.368 242.437 842.453 242.21L843.425 242.483C843.323 242.812 843.151 243.102 842.909 243.352C842.668 243.599 842.37 243.793 842.015 243.932C841.659 244.068 841.26 244.136 840.817 244.136ZM850.21 237.455L847.79 244H846.767L844.347 237.455H845.438L847.244 242.67H847.312L849.119 237.455H850.21ZM856.174 238.92L855.271 239.176C855.214 239.026 855.13 238.879 855.019 238.737C854.911 238.592 854.763 238.473 854.576 238.379C854.388 238.286 854.148 238.239 853.856 238.239C853.455 238.239 853.121 238.331 852.854 238.516C852.59 238.697 852.458 238.929 852.458 239.21C852.458 239.46 852.549 239.658 852.731 239.803C852.913 239.947 853.197 240.068 853.583 240.165L854.555 240.403C855.14 240.545 855.576 240.763 855.863 241.055C856.15 241.345 856.293 241.719 856.293 242.176C856.293 242.551 856.185 242.886 855.969 243.182C855.756 243.477 855.458 243.71 855.075 243.881C854.691 244.051 854.245 244.136 853.737 244.136C853.069 244.136 852.516 243.991 852.079 243.702C851.641 243.412 851.364 242.989 851.248 242.432L852.202 242.193C852.293 242.545 852.465 242.81 852.718 242.986C852.974 243.162 853.308 243.25 853.719 243.25C854.188 243.25 854.56 243.151 854.836 242.952C855.114 242.75 855.254 242.509 855.254 242.227C855.254 242 855.174 241.81 855.015 241.656C854.856 241.5 854.612 241.384 854.282 241.307L853.191 241.051C852.592 240.909 852.151 240.689 851.87 240.391C851.592 240.089 851.452 239.713 851.452 239.261C851.452 238.892 851.556 238.565 851.763 238.281C851.974 237.997 852.259 237.774 852.62 237.612C852.984 237.45 853.396 237.369 853.856 237.369C854.504 237.369 855.012 237.511 855.381 237.795C855.754 238.08 856.018 238.455 856.174 238.92ZM858.097 240.932V240.25L863.586 237.455V238.545L859.375 240.574L859.409 240.506V240.676L859.375 240.608L863.586 242.636V243.727L858.097 240.932ZM868.803 234.864L865.99 245.312H865.07L867.882 234.864H868.803ZM900.652 240.932L895.163 243.727V242.636L899.374 240.608L899.339 240.676V240.506L899.374 240.574L895.163 238.545V237.455L900.652 240.25V240.932ZM748.21 258.932V258.25L753.699 255.455V256.545L749.489 258.574L749.523 258.506V258.676L749.489 258.608L753.699 260.636V261.727L748.21 258.932ZM758.916 252.864L756.103 263.312H755.183L757.995 252.864H758.916ZM786.113 258.932L780.624 261.727V260.636L784.835 258.608L784.8 258.676V258.506L784.835 258.574L780.624 256.545V255.455L786.113 258.25V258.932ZM733.193 276.318C733.193 277.392 733.053 278.381 732.771 279.284C732.493 280.185 732.094 281.014 731.574 281.773H730.688C730.892 281.491 731.082 281.145 731.259 280.733C731.438 280.324 731.594 279.875 731.727 279.386C731.861 278.895 731.964 278.388 732.038 277.865C732.115 277.339 732.153 276.824 732.153 276.318C732.153 275.642 732.088 274.956 731.957 274.26C731.827 273.564 731.651 272.918 731.429 272.321C731.207 271.724 730.96 271.239 730.688 270.864H731.574C732.094 271.622 732.493 272.453 732.771 273.357C733.053 274.257 733.193 275.244 733.193 276.318ZM723.903 291.301V291.83C723.429 291.83 723.097 291.929 722.906 292.128C722.719 292.327 722.625 292.659 722.625 293.125V294.489C722.625 294.881 722.587 295.22 722.51 295.507C722.436 295.794 722.314 296.031 722.143 296.219C721.973 296.406 721.746 296.545 721.462 296.636C721.178 296.727 720.827 296.773 720.409 296.773V295.938C720.739 295.938 720.997 295.885 721.185 295.78C721.375 295.678 721.509 295.52 721.585 295.307C721.665 295.094 721.705 294.821 721.705 294.489V292.784C721.705 292.562 721.733 292.361 721.79 292.179C721.849 291.997 721.957 291.841 722.114 291.71C722.27 291.58 722.491 291.479 722.778 291.408C723.068 291.337 723.443 291.301 723.903 291.301ZM720.409 285.864C720.827 285.864 721.178 285.909 721.462 286C721.746 286.091 721.973 286.23 722.143 286.418C722.314 286.605 722.436 286.842 722.51 287.129C722.587 287.416 722.625 287.756 722.625 288.148V289.511C722.625 289.977 722.719 290.31 722.906 290.509C723.097 290.707 723.429 290.807 723.903 290.807V291.335C723.443 291.335 723.068 291.3 722.778 291.229C722.491 291.158 722.27 291.057 722.114 290.926C721.957 290.795 721.849 290.639 721.79 290.457C721.733 290.276 721.705 290.074 721.705 289.852V288.148C721.705 287.815 721.665 287.543 721.585 287.33C721.509 287.114 721.375 286.955 721.185 286.852C720.997 286.75 720.739 286.699 720.409 286.699V285.864ZM723.903 290.807V291.83H722.898V290.807H723.903Z" fill="black"/>
<path d="M771.196 166H770.088L773.293 157.273H774.384L777.588 166H776.48L773.872 158.653H773.804L771.196 166ZM771.605 162.591H776.071V163.528H771.605V162.591ZM778.947 166V157.273H779.953V160.494H780.038C780.112 160.381 780.214 160.236 780.345 160.06C780.479 159.881 780.669 159.722 780.916 159.582C781.166 159.44 781.504 159.369 781.93 159.369C782.482 159.369 782.967 159.507 783.388 159.783C783.808 160.058 784.136 160.449 784.372 160.955C784.608 161.46 784.726 162.057 784.726 162.744C784.726 163.438 784.608 164.038 784.372 164.547C784.136 165.053 783.81 165.445 783.392 165.723C782.974 165.999 782.493 166.136 781.947 166.136C781.527 166.136 781.19 166.067 780.938 165.928C780.685 165.786 780.49 165.625 780.354 165.446C780.217 165.264 780.112 165.114 780.038 164.994H779.919V166H778.947ZM779.936 162.727C779.936 163.222 780.009 163.658 780.153 164.036C780.298 164.411 780.51 164.705 780.788 164.918C781.067 165.128 781.408 165.233 781.811 165.233C782.232 165.233 782.582 165.122 782.864 164.901C783.148 164.676 783.361 164.375 783.503 163.997C783.648 163.616 783.72 163.193 783.72 162.727C783.72 162.267 783.649 161.852 783.507 161.483C783.368 161.111 783.156 160.817 782.872 160.601C782.591 160.382 782.237 160.273 781.811 160.273C781.402 160.273 781.058 160.376 780.78 160.584C780.501 160.788 780.291 161.075 780.149 161.445C780.007 161.811 779.936 162.239 779.936 162.727ZM788.923 166.136C788.332 166.136 787.814 165.996 787.368 165.714C786.925 165.433 786.578 165.04 786.328 164.534C786.081 164.028 785.957 163.437 785.957 162.761C785.957 162.08 786.081 161.484 786.328 160.976C786.578 160.467 786.925 160.072 787.368 159.791C787.814 159.51 788.332 159.369 788.923 159.369C789.514 159.369 790.031 159.51 790.474 159.791C790.92 160.072 791.267 160.467 791.514 160.976C791.764 161.484 791.889 162.08 791.889 162.761C791.889 163.437 791.764 164.028 791.514 164.534C791.267 165.04 790.92 165.433 790.474 165.714C790.031 165.996 789.514 166.136 788.923 166.136ZM788.923 165.233C789.372 165.233 789.741 165.118 790.031 164.888C790.321 164.658 790.536 164.355 790.675 163.98C790.814 163.605 790.884 163.199 790.884 162.761C790.884 162.324 790.814 161.916 790.675 161.538C790.536 161.161 790.321 160.855 790.031 160.622C789.741 160.389 789.372 160.273 788.923 160.273C788.474 160.273 788.105 160.389 787.815 160.622C787.526 160.855 787.311 161.161 787.172 161.538C787.033 161.916 786.963 162.324 786.963 162.761C786.963 163.199 787.033 163.605 787.172 163.98C787.311 164.355 787.526 164.658 787.815 164.888C788.105 165.118 788.474 165.233 788.923 165.233ZM797.549 163.324V159.455H798.555V166H797.549V164.892H797.481C797.328 165.224 797.089 165.507 796.765 165.74C796.441 165.97 796.032 166.085 795.538 166.085C795.129 166.085 794.765 165.996 794.447 165.817C794.129 165.635 793.879 165.362 793.697 164.999C793.515 164.632 793.424 164.17 793.424 163.614V159.455H794.43V163.545C794.43 164.023 794.564 164.403 794.831 164.688C795.1 164.972 795.444 165.114 795.862 165.114C796.112 165.114 796.366 165.05 796.625 164.922C796.886 164.794 797.105 164.598 797.281 164.334C797.46 164.07 797.549 163.733 797.549 163.324ZM803.244 159.455V160.307H799.852V159.455H803.244ZM800.84 157.886H801.846V164.125C801.846 164.409 801.887 164.622 801.969 164.764C802.055 164.903 802.163 164.997 802.293 165.045C802.427 165.091 802.567 165.114 802.715 165.114C802.826 165.114 802.917 165.108 802.988 165.097C803.059 165.082 803.116 165.071 803.158 165.062L803.363 165.966C803.295 165.991 803.2 166.017 803.077 166.043C802.955 166.071 802.8 166.085 802.613 166.085C802.329 166.085 802.05 166.024 801.778 165.902C801.508 165.78 801.283 165.594 801.104 165.344C800.928 165.094 800.84 164.778 800.84 164.398V157.886ZM805.033 166V157.273H807.982C808.667 157.273 809.227 157.396 809.661 157.643C810.099 157.888 810.423 158.219 810.633 158.636C810.843 159.054 810.948 159.52 810.948 160.034C810.948 160.548 810.843 161.016 810.633 161.436C810.425 161.857 810.104 162.192 809.67 162.442C809.235 162.689 808.678 162.812 807.999 162.812H805.886V161.875H807.965C808.434 161.875 808.81 161.794 809.094 161.632C809.379 161.47 809.585 161.251 809.712 160.976C809.843 160.697 809.908 160.384 809.908 160.034C809.908 159.685 809.843 159.372 809.712 159.097C809.585 158.821 809.377 158.605 809.09 158.449C808.803 158.29 808.423 158.21 807.948 158.21H806.09V166H805.033ZM814.44 166.153C814.026 166.153 813.649 166.075 813.311 165.919C812.973 165.76 812.705 165.531 812.506 165.233C812.307 164.932 812.207 164.568 812.207 164.142C812.207 163.767 812.281 163.463 812.429 163.23C812.577 162.994 812.774 162.81 813.021 162.676C813.268 162.543 813.541 162.443 813.839 162.378C814.141 162.31 814.443 162.256 814.747 162.216C815.145 162.165 815.467 162.126 815.714 162.101C815.964 162.072 816.146 162.026 816.26 161.96C816.376 161.895 816.435 161.781 816.435 161.619V161.585C816.435 161.165 816.32 160.838 816.089 160.605C815.862 160.372 815.517 160.256 815.054 160.256C814.574 160.256 814.197 160.361 813.925 160.571C813.652 160.781 813.46 161.006 813.349 161.244L812.395 160.903C812.565 160.506 812.793 160.196 813.077 159.974C813.364 159.75 813.676 159.594 814.014 159.506C814.355 159.415 814.69 159.369 815.02 159.369C815.23 159.369 815.472 159.395 815.744 159.446C816.02 159.494 816.286 159.595 816.541 159.749C816.8 159.902 817.014 160.134 817.185 160.443C817.355 160.753 817.44 161.168 817.44 161.688V166H816.435V165.114H816.384C816.315 165.256 816.202 165.408 816.043 165.57C815.884 165.732 815.672 165.869 815.408 165.983C815.143 166.097 814.821 166.153 814.44 166.153ZM814.594 165.25C814.991 165.25 815.327 165.172 815.599 165.016C815.875 164.859 816.082 164.658 816.222 164.411C816.364 164.163 816.435 163.903 816.435 163.631V162.71C816.392 162.761 816.298 162.808 816.153 162.851C816.011 162.891 815.847 162.926 815.659 162.957C815.474 162.986 815.294 163.011 815.118 163.034C814.945 163.054 814.804 163.071 814.696 163.085C814.435 163.119 814.19 163.175 813.963 163.251C813.739 163.325 813.557 163.437 813.418 163.588C813.281 163.736 813.213 163.937 813.213 164.193C813.213 164.543 813.342 164.807 813.601 164.986C813.862 165.162 814.193 165.25 814.594 165.25ZM821.918 168.591C821.432 168.591 821.015 168.528 820.665 168.403C820.316 168.281 820.025 168.119 819.792 167.918C819.561 167.719 819.378 167.506 819.242 167.278L820.043 166.716C820.134 166.835 820.249 166.972 820.388 167.125C820.527 167.281 820.718 167.416 820.959 167.53C821.203 167.646 821.523 167.705 821.918 167.705C822.446 167.705 822.882 167.577 823.226 167.321C823.57 167.065 823.742 166.665 823.742 166.119V164.79H823.657C823.583 164.909 823.478 165.057 823.341 165.233C823.208 165.406 823.015 165.561 822.762 165.697C822.512 165.831 822.174 165.898 821.748 165.898C821.219 165.898 820.745 165.773 820.324 165.523C819.907 165.273 819.576 164.909 819.331 164.432C819.09 163.955 818.969 163.375 818.969 162.693C818.969 162.023 819.087 161.439 819.323 160.942C819.559 160.442 819.887 160.055 820.307 159.783C820.728 159.507 821.213 159.369 821.765 159.369C822.191 159.369 822.529 159.44 822.779 159.582C823.032 159.722 823.225 159.881 823.358 160.06C823.495 160.236 823.6 160.381 823.674 160.494H823.776V159.455H824.748V166.188C824.748 166.75 824.62 167.207 824.364 167.56C824.111 167.915 823.77 168.175 823.341 168.339C822.915 168.507 822.441 168.591 821.918 168.591ZM821.884 164.994C822.287 164.994 822.628 164.902 822.907 164.717C823.185 164.533 823.397 164.267 823.542 163.92C823.686 163.574 823.759 163.159 823.759 162.676C823.759 162.205 823.688 161.788 823.546 161.428C823.404 161.067 823.194 160.784 822.915 160.58C822.637 160.375 822.293 160.273 821.884 160.273C821.458 160.273 821.103 160.381 820.819 160.597C820.537 160.812 820.326 161.102 820.184 161.466C820.044 161.83 819.975 162.233 819.975 162.676C819.975 163.131 820.046 163.533 820.188 163.882C820.333 164.229 820.546 164.501 820.827 164.7C821.111 164.896 821.463 164.994 821.884 164.994ZM829.333 166.136C828.702 166.136 828.158 165.997 827.701 165.719C827.246 165.438 826.895 165.045 826.648 164.543C826.404 164.037 826.282 163.449 826.282 162.778C826.282 162.108 826.404 161.517 826.648 161.006C826.895 160.491 827.239 160.091 827.679 159.804C828.123 159.514 828.64 159.369 829.23 159.369C829.571 159.369 829.908 159.426 830.24 159.54C830.573 159.653 830.875 159.838 831.148 160.094C831.421 160.347 831.638 160.682 831.8 161.099C831.962 161.517 832.043 162.031 832.043 162.642V163.068H826.998V162.199H831.02C831.02 161.83 830.946 161.5 830.799 161.21C830.654 160.92 830.446 160.692 830.176 160.524C829.909 160.357 829.594 160.273 829.23 160.273C828.83 160.273 828.483 160.372 828.191 160.571C827.901 160.767 827.678 161.023 827.522 161.338C827.365 161.653 827.287 161.991 827.287 162.352V162.932C827.287 163.426 827.373 163.845 827.543 164.189C827.716 164.53 827.956 164.79 828.263 164.969C828.57 165.145 828.926 165.233 829.333 165.233C829.597 165.233 829.836 165.196 830.049 165.122C830.265 165.045 830.451 164.932 830.607 164.781C830.763 164.628 830.884 164.437 830.969 164.21L831.941 164.483C831.838 164.812 831.667 165.102 831.425 165.352C831.184 165.599 830.885 165.793 830.53 165.932C830.175 166.068 829.776 166.136 829.333 166.136Z" fill="#9B7900"/>
<path d="M734.42 181V174.455H735.392V175.443H735.46C735.58 175.119 735.795 174.857 736.108 174.655C736.42 174.453 736.773 174.352 737.165 174.352C737.239 174.352 737.331 174.354 737.442 174.357C737.553 174.359 737.636 174.364 737.693 174.369V175.392C737.659 175.384 737.581 175.371 737.459 175.354C737.339 175.334 737.213 175.324 737.08 175.324C736.761 175.324 736.477 175.391 736.227 175.524C735.98 175.655 735.784 175.837 735.639 176.07C735.497 176.3 735.426 176.562 735.426 176.858V181H734.42ZM741.43 181.136C740.8 181.136 740.256 180.997 739.798 180.719C739.344 180.438 738.993 180.045 738.746 179.543C738.501 179.037 738.379 178.449 738.379 177.778C738.379 177.108 738.501 176.517 738.746 176.006C738.993 175.491 739.337 175.091 739.777 174.804C740.22 174.514 740.737 174.369 741.328 174.369C741.669 174.369 742.006 174.426 742.338 174.54C742.67 174.653 742.973 174.838 743.246 175.094C743.518 175.347 743.736 175.682 743.898 176.099C744.06 176.517 744.141 177.031 744.141 177.642V178.068H739.095V177.199H743.118C743.118 176.83 743.044 176.5 742.896 176.21C742.751 175.92 742.544 175.692 742.274 175.524C742.007 175.357 741.692 175.273 741.328 175.273C740.928 175.273 740.581 175.372 740.288 175.571C739.999 175.767 739.776 176.023 739.619 176.338C739.463 176.653 739.385 176.991 739.385 177.352V177.932C739.385 178.426 739.47 178.845 739.641 179.189C739.814 179.53 740.054 179.79 740.361 179.969C740.668 180.145 741.024 180.233 741.43 180.233C741.695 180.233 741.933 180.196 742.146 180.122C742.362 180.045 742.548 179.932 742.705 179.781C742.861 179.628 742.982 179.437 743.067 179.21L744.038 179.483C743.936 179.812 743.764 180.102 743.523 180.352C743.281 180.599 742.983 180.793 742.628 180.932C742.273 181.068 741.874 181.136 741.43 181.136ZM748.517 174.455V175.307H745.125V174.455H748.517ZM746.114 172.886H747.119V179.125C747.119 179.409 747.161 179.622 747.243 179.764C747.328 179.903 747.436 179.997 747.567 180.045C747.7 180.091 747.841 180.114 747.989 180.114C748.099 180.114 748.19 180.108 748.261 180.097C748.332 180.082 748.389 180.071 748.432 180.062L748.636 180.966C748.568 180.991 748.473 181.017 748.351 181.043C748.229 181.071 748.074 181.085 747.886 181.085C747.602 181.085 747.324 181.024 747.051 180.902C746.781 180.78 746.557 180.594 746.378 180.344C746.202 180.094 746.114 179.778 746.114 179.398V172.886ZM754.155 178.324V174.455H755.161V181H754.155V179.892H754.087C753.933 180.224 753.695 180.507 753.371 180.74C753.047 180.97 752.638 181.085 752.143 181.085C751.734 181.085 751.371 180.996 751.053 180.817C750.734 180.635 750.484 180.362 750.303 179.999C750.121 179.632 750.03 179.17 750.03 178.614V174.455H751.036V178.545C751.036 179.023 751.169 179.403 751.436 179.688C751.706 179.972 752.05 180.114 752.467 180.114C752.717 180.114 752.972 180.05 753.23 179.922C753.491 179.794 753.71 179.598 753.886 179.334C754.065 179.07 754.155 178.733 754.155 178.324ZM757.002 181V174.455H757.974V175.443H758.042C758.162 175.119 758.377 174.857 758.69 174.655C759.002 174.453 759.355 174.352 759.747 174.352C759.821 174.352 759.913 174.354 760.024 174.357C760.135 174.359 760.218 174.364 760.275 174.369V175.392C760.241 175.384 760.163 175.371 760.041 175.354C759.922 175.334 759.795 175.324 759.662 175.324C759.343 175.324 759.059 175.391 758.809 175.524C758.562 175.655 758.366 175.837 758.221 176.07C758.079 176.3 758.008 176.562 758.008 176.858V181H757.002ZM762.473 177.062V181H761.467V174.455H762.439V175.477H762.524C762.678 175.145 762.911 174.878 763.223 174.676C763.536 174.472 763.939 174.369 764.433 174.369C764.876 174.369 765.264 174.46 765.597 174.642C765.929 174.821 766.188 175.094 766.372 175.46C766.557 175.824 766.649 176.284 766.649 176.841V181H765.643V176.909C765.643 176.395 765.51 175.994 765.243 175.707C764.976 175.418 764.609 175.273 764.143 175.273C763.822 175.273 763.536 175.342 763.283 175.482C763.033 175.621 762.835 175.824 762.69 176.091C762.545 176.358 762.473 176.682 762.473 177.062Z" fill="#450065"/>
<path d="M755.967 196V187.273H758.916C759.6 187.273 760.16 187.396 760.595 187.643C761.032 187.888 761.356 188.219 761.566 188.636C761.777 189.054 761.882 189.52 761.882 190.034C761.882 190.548 761.777 191.016 761.566 191.436C761.359 191.857 761.038 192.192 760.603 192.442C760.169 192.689 759.612 192.812 758.933 192.812H756.819V191.875H758.899C759.368 191.875 759.744 191.794 760.028 191.632C760.312 191.47 760.518 191.251 760.646 190.976C760.777 190.697 760.842 190.384 760.842 190.034C760.842 189.685 760.777 189.372 760.646 189.097C760.518 188.821 760.311 188.605 760.024 188.449C759.737 188.29 759.356 188.21 758.882 188.21H757.024V196H755.967ZM765.374 196.153C764.959 196.153 764.583 196.075 764.245 195.919C763.907 195.76 763.638 195.531 763.439 195.233C763.24 194.932 763.141 194.568 763.141 194.142C763.141 193.767 763.215 193.463 763.363 193.23C763.51 192.994 763.708 192.81 763.955 192.676C764.202 192.543 764.475 192.443 764.773 192.378C765.074 192.31 765.377 192.256 765.681 192.216C766.078 192.165 766.401 192.126 766.648 192.101C766.898 192.072 767.08 192.026 767.194 191.96C767.31 191.895 767.368 191.781 767.368 191.619V191.585C767.368 191.165 767.253 190.838 767.023 190.605C766.796 190.372 766.451 190.256 765.988 190.256C765.507 190.256 765.131 190.361 764.858 190.571C764.586 190.781 764.394 191.006 764.283 191.244L763.328 190.903C763.499 190.506 763.726 190.196 764.01 189.974C764.297 189.75 764.61 189.594 764.948 189.506C765.289 189.415 765.624 189.369 765.953 189.369C766.164 189.369 766.405 189.395 766.678 189.446C766.953 189.494 767.219 189.595 767.475 189.749C767.733 189.902 767.948 190.134 768.118 190.443C768.289 190.753 768.374 191.168 768.374 191.688V196H767.368V195.114H767.317C767.249 195.256 767.135 195.408 766.976 195.57C766.817 195.732 766.605 195.869 766.341 195.983C766.077 196.097 765.755 196.153 765.374 196.153ZM765.527 195.25C765.925 195.25 766.26 195.172 766.533 195.016C766.809 194.859 767.016 194.658 767.155 194.411C767.297 194.163 767.368 193.903 767.368 193.631V192.71C767.326 192.761 767.232 192.808 767.087 192.851C766.945 192.891 766.78 192.926 766.593 192.957C766.408 192.986 766.228 193.011 766.051 193.034C765.878 193.054 765.738 193.071 765.63 193.085C765.368 193.119 765.124 193.175 764.897 193.251C764.672 193.325 764.49 193.437 764.351 193.588C764.215 193.736 764.147 193.937 764.147 194.193C764.147 194.543 764.276 194.807 764.534 194.986C764.796 195.162 765.127 195.25 765.527 195.25ZM772.852 198.591C772.366 198.591 771.948 198.528 771.599 198.403C771.249 198.281 770.958 198.119 770.725 197.918C770.495 197.719 770.312 197.506 770.175 197.278L770.977 196.716C771.067 196.835 771.183 196.972 771.322 197.125C771.461 197.281 771.651 197.416 771.893 197.53C772.137 197.646 772.457 197.705 772.852 197.705C773.38 197.705 773.816 197.577 774.16 197.321C774.504 197.065 774.675 196.665 774.675 196.119V194.79H774.59C774.516 194.909 774.411 195.057 774.275 195.233C774.141 195.406 773.948 195.561 773.695 195.697C773.445 195.831 773.107 195.898 772.681 195.898C772.153 195.898 771.678 195.773 771.258 195.523C770.84 195.273 770.509 194.909 770.265 194.432C770.023 193.955 769.903 193.375 769.903 192.693C769.903 192.023 770.021 191.439 770.256 190.942C770.492 190.442 770.82 190.055 771.241 189.783C771.661 189.507 772.147 189.369 772.698 189.369C773.124 189.369 773.462 189.44 773.712 189.582C773.965 189.722 774.158 189.881 774.292 190.06C774.428 190.236 774.533 190.381 774.607 190.494H774.71V189.455H775.681V196.188C775.681 196.75 775.553 197.207 775.298 197.56C775.045 197.915 774.704 198.175 774.275 198.339C773.849 198.507 773.374 198.591 772.852 198.591ZM772.817 194.994C773.221 194.994 773.562 194.902 773.84 194.717C774.119 194.533 774.33 194.267 774.475 193.92C774.62 193.574 774.692 193.159 774.692 192.676C774.692 192.205 774.621 191.788 774.479 191.428C774.337 191.067 774.127 190.784 773.849 190.58C773.57 190.375 773.227 190.273 772.817 190.273C772.391 190.273 772.036 190.381 771.752 190.597C771.471 190.812 771.259 191.102 771.117 191.466C770.978 191.83 770.908 192.233 770.908 192.676C770.908 193.131 770.979 193.533 771.121 193.882C771.266 194.229 771.479 194.501 771.761 194.7C772.045 194.896 772.397 194.994 772.817 194.994ZM780.266 196.136C779.636 196.136 779.092 195.997 778.634 195.719C778.18 195.438 777.829 195.045 777.582 194.543C777.337 194.037 777.215 193.449 777.215 192.778C777.215 192.108 777.337 191.517 777.582 191.006C777.829 190.491 778.173 190.091 778.613 189.804C779.056 189.514 779.573 189.369 780.164 189.369C780.505 189.369 780.842 189.426 781.174 189.54C781.506 189.653 781.809 189.838 782.082 190.094C782.354 190.347 782.572 190.682 782.734 191.099C782.896 191.517 782.977 192.031 782.977 192.642V193.068H777.931V192.199H781.954C781.954 191.83 781.88 191.5 781.732 191.21C781.587 190.92 781.38 190.692 781.11 190.524C780.843 190.357 780.528 190.273 780.164 190.273C779.763 190.273 779.417 190.372 779.124 190.571C778.835 190.767 778.612 191.023 778.455 191.338C778.299 191.653 778.221 191.991 778.221 192.352V192.932C778.221 193.426 778.306 193.845 778.477 194.189C778.65 194.53 778.89 194.79 779.197 194.969C779.504 195.145 779.86 195.233 780.266 195.233C780.531 195.233 780.769 195.196 780.982 195.122C781.198 195.045 781.384 194.932 781.54 194.781C781.697 194.628 781.817 194.437 781.903 194.21L782.874 194.483C782.772 194.812 782.6 195.102 782.359 195.352C782.117 195.599 781.819 195.793 781.464 195.932C781.109 196.068 780.71 196.136 780.266 196.136ZM785.7 187.273V196H784.643V187.273H785.7ZM790.341 196.136C789.728 196.136 789.199 195.991 788.756 195.702C788.313 195.412 787.972 195.013 787.733 194.504C787.495 193.996 787.375 193.415 787.375 192.761C787.375 192.097 787.498 191.51 787.742 191.001C787.989 190.49 788.333 190.091 788.773 189.804C789.216 189.514 789.733 189.369 790.324 189.369C790.784 189.369 791.199 189.455 791.569 189.625C791.938 189.795 792.24 190.034 792.476 190.341C792.712 190.648 792.858 191.006 792.915 191.415H791.909C791.833 191.116 791.662 190.852 791.398 190.622C791.137 190.389 790.784 190.273 790.341 190.273C789.949 190.273 789.605 190.375 789.31 190.58C789.017 190.781 788.789 191.067 788.624 191.436C788.462 191.803 788.381 192.233 788.381 192.727C788.381 193.233 788.461 193.673 788.62 194.048C788.782 194.423 789.009 194.714 789.301 194.922C789.597 195.129 789.944 195.233 790.341 195.233C790.603 195.233 790.84 195.188 791.053 195.097C791.266 195.006 791.446 194.875 791.594 194.705C791.742 194.534 791.847 194.33 791.909 194.091H792.915C792.858 194.477 792.718 194.825 792.493 195.135C792.272 195.442 791.978 195.686 791.611 195.868C791.248 196.047 790.824 196.136 790.341 196.136ZM797.044 196.136C796.453 196.136 795.935 195.996 795.489 195.714C795.046 195.433 794.699 195.04 794.449 194.534C794.202 194.028 794.078 193.437 794.078 192.761C794.078 192.08 794.202 191.484 794.449 190.976C794.699 190.467 795.046 190.072 795.489 189.791C795.935 189.51 796.453 189.369 797.044 189.369C797.635 189.369 798.152 189.51 798.596 189.791C799.042 190.072 799.388 190.467 799.635 190.976C799.885 191.484 800.01 192.08 800.01 192.761C800.01 193.437 799.885 194.028 799.635 194.534C799.388 195.04 799.042 195.433 798.596 195.714C798.152 195.996 797.635 196.136 797.044 196.136ZM797.044 195.233C797.493 195.233 797.863 195.118 798.152 194.888C798.442 194.658 798.657 194.355 798.796 193.98C798.935 193.605 799.005 193.199 799.005 192.761C799.005 192.324 798.935 191.916 798.796 191.538C798.657 191.161 798.442 190.855 798.152 190.622C797.863 190.389 797.493 190.273 797.044 190.273C796.596 190.273 796.226 190.389 795.936 190.622C795.647 190.855 795.432 191.161 795.293 191.538C795.154 191.916 795.084 192.324 795.084 192.761C795.084 193.199 795.154 193.605 795.293 193.98C795.432 194.355 795.647 194.658 795.936 194.888C796.226 195.118 796.596 195.233 797.044 195.233ZM802.551 192.062V196H801.545V189.455H802.517V190.477H802.602C802.756 190.145 802.989 189.878 803.301 189.676C803.614 189.472 804.017 189.369 804.511 189.369C804.955 189.369 805.342 189.46 805.675 189.642C806.007 189.821 806.266 190.094 806.45 190.46C806.635 190.824 806.727 191.284 806.727 191.841V196H805.722V191.909C805.722 191.395 805.588 190.994 805.321 190.707C805.054 190.418 804.688 190.273 804.222 190.273C803.901 190.273 803.614 190.342 803.361 190.482C803.111 190.621 802.913 190.824 802.768 191.091C802.624 191.358 802.551 191.682 802.551 192.062ZM755.967 214V205.273H758.916C759.6 205.273 760.16 205.396 760.595 205.643C761.032 205.888 761.356 206.219 761.566 206.636C761.777 207.054 761.882 207.52 761.882 208.034C761.882 208.548 761.777 209.016 761.566 209.436C761.359 209.857 761.038 210.192 760.603 210.442C760.169 210.689 759.612 210.812 758.933 210.812H756.819V209.875H758.899C759.368 209.875 759.744 209.794 760.028 209.632C760.312 209.47 760.518 209.251 760.646 208.976C760.777 208.697 760.842 208.384 760.842 208.034C760.842 207.685 760.777 207.372 760.646 207.097C760.518 206.821 760.311 206.605 760.024 206.449C759.737 206.29 759.356 206.21 758.882 206.21H757.024V214H755.967ZM765.374 214.153C764.959 214.153 764.583 214.075 764.245 213.919C763.907 213.76 763.638 213.531 763.439 213.233C763.24 212.932 763.141 212.568 763.141 212.142C763.141 211.767 763.215 211.463 763.363 211.23C763.51 210.994 763.708 210.81 763.955 210.676C764.202 210.543 764.475 210.443 764.773 210.378C765.074 210.31 765.377 210.256 765.681 210.216C766.078 210.165 766.401 210.126 766.648 210.101C766.898 210.072 767.08 210.026 767.194 209.96C767.31 209.895 767.368 209.781 767.368 209.619V209.585C767.368 209.165 767.253 208.838 767.023 208.605C766.796 208.372 766.451 208.256 765.988 208.256C765.507 208.256 765.131 208.361 764.858 208.571C764.586 208.781 764.394 209.006 764.283 209.244L763.328 208.903C763.499 208.506 763.726 208.196 764.01 207.974C764.297 207.75 764.61 207.594 764.948 207.506C765.289 207.415 765.624 207.369 765.953 207.369C766.164 207.369 766.405 207.395 766.678 207.446C766.953 207.494 767.219 207.595 767.475 207.749C767.733 207.902 767.948 208.134 768.118 208.443C768.289 208.753 768.374 209.168 768.374 209.688V214H767.368V213.114H767.317C767.249 213.256 767.135 213.408 766.976 213.57C766.817 213.732 766.605 213.869 766.341 213.983C766.077 214.097 765.755 214.153 765.374 214.153ZM765.527 213.25C765.925 213.25 766.26 213.172 766.533 213.016C766.809 212.859 767.016 212.658 767.155 212.411C767.297 212.163 767.368 211.903 767.368 211.631V210.71C767.326 210.761 767.232 210.808 767.087 210.851C766.945 210.891 766.78 210.926 766.593 210.957C766.408 210.986 766.228 211.011 766.051 211.034C765.878 211.054 765.738 211.071 765.63 211.085C765.368 211.119 765.124 211.175 764.897 211.251C764.672 211.325 764.49 211.437 764.351 211.588C764.215 211.736 764.147 211.937 764.147 212.193C764.147 212.543 764.276 212.807 764.534 212.986C764.796 213.162 765.127 213.25 765.527 213.25ZM772.852 216.591C772.366 216.591 771.948 216.528 771.599 216.403C771.249 216.281 770.958 216.119 770.725 215.918C770.495 215.719 770.312 215.506 770.175 215.278L770.977 214.716C771.067 214.835 771.183 214.972 771.322 215.125C771.461 215.281 771.651 215.416 771.893 215.53C772.137 215.646 772.457 215.705 772.852 215.705C773.38 215.705 773.816 215.577 774.16 215.321C774.504 215.065 774.675 214.665 774.675 214.119V212.79H774.59C774.516 212.909 774.411 213.057 774.275 213.233C774.141 213.406 773.948 213.561 773.695 213.697C773.445 213.831 773.107 213.898 772.681 213.898C772.153 213.898 771.678 213.773 771.258 213.523C770.84 213.273 770.509 212.909 770.265 212.432C770.023 211.955 769.903 211.375 769.903 210.693C769.903 210.023 770.021 209.439 770.256 208.942C770.492 208.442 770.82 208.055 771.241 207.783C771.661 207.507 772.147 207.369 772.698 207.369C773.124 207.369 773.462 207.44 773.712 207.582C773.965 207.722 774.158 207.881 774.292 208.06C774.428 208.236 774.533 208.381 774.607 208.494H774.71V207.455H775.681V214.188C775.681 214.75 775.553 215.207 775.298 215.56C775.045 215.915 774.704 216.175 774.275 216.339C773.849 216.507 773.374 216.591 772.852 216.591ZM772.817 212.994C773.221 212.994 773.562 212.902 773.84 212.717C774.119 212.533 774.33 212.267 774.475 211.92C774.62 211.574 774.692 211.159 774.692 210.676C774.692 210.205 774.621 209.788 774.479 209.428C774.337 209.067 774.127 208.784 773.849 208.58C773.57 208.375 773.227 208.273 772.817 208.273C772.391 208.273 772.036 208.381 771.752 208.597C771.471 208.812 771.259 209.102 771.117 209.466C770.978 209.83 770.908 210.233 770.908 210.676C770.908 211.131 770.979 211.533 771.121 211.882C771.266 212.229 771.479 212.501 771.761 212.7C772.045 212.896 772.397 212.994 772.817 212.994ZM780.266 214.136C779.636 214.136 779.092 213.997 778.634 213.719C778.18 213.438 777.829 213.045 777.582 212.543C777.337 212.037 777.215 211.449 777.215 210.778C777.215 210.108 777.337 209.517 777.582 209.006C777.829 208.491 778.173 208.091 778.613 207.804C779.056 207.514 779.573 207.369 780.164 207.369C780.505 207.369 780.842 207.426 781.174 207.54C781.506 207.653 781.809 207.838 782.082 208.094C782.354 208.347 782.572 208.682 782.734 209.099C782.896 209.517 782.977 210.031 782.977 210.642V211.068H777.931V210.199H781.954C781.954 209.83 781.88 209.5 781.732 209.21C781.587 208.92 781.38 208.692 781.11 208.524C780.843 208.357 780.528 208.273 780.164 208.273C779.763 208.273 779.417 208.372 779.124 208.571C778.835 208.767 778.612 209.023 778.455 209.338C778.299 209.653 778.221 209.991 778.221 210.352V210.932C778.221 211.426 778.306 211.845 778.477 212.189C778.65 212.53 778.89 212.79 779.197 212.969C779.504 213.145 779.86 213.233 780.266 213.233C780.531 213.233 780.769 213.196 780.982 213.122C781.198 213.045 781.384 212.932 781.54 212.781C781.697 212.628 781.817 212.437 781.903 212.21L782.874 212.483C782.772 212.812 782.6 213.102 782.359 213.352C782.117 213.599 781.819 213.793 781.464 213.932C781.109 214.068 780.71 214.136 780.266 214.136ZM783.556 206.21V205.273H790.102V206.21H787.357V214H786.3V206.21H783.556ZM791.596 214V207.455H792.602V214H791.596ZM792.108 206.364C791.912 206.364 791.743 206.297 791.6 206.163C791.461 206.03 791.392 205.869 791.392 205.682C791.392 205.494 791.461 205.334 791.6 205.2C791.743 205.067 791.912 205 792.108 205C792.304 205 792.471 205.067 792.61 205.2C792.752 205.334 792.824 205.494 792.824 205.682C792.824 205.869 792.752 206.03 792.61 206.163C792.471 206.297 792.304 206.364 792.108 206.364ZM797.29 207.455V208.307H793.898V207.455H797.29ZM794.887 205.886H795.893V212.125C795.893 212.409 795.934 212.622 796.016 212.764C796.102 212.903 796.21 212.997 796.34 213.045C796.474 213.091 796.614 213.114 796.762 213.114C796.873 213.114 796.964 213.108 797.035 213.097C797.106 213.082 797.163 213.071 797.205 213.062L797.41 213.966C797.342 213.991 797.246 214.017 797.124 214.043C797.002 214.071 796.847 214.085 796.66 214.085C796.376 214.085 796.097 214.024 795.825 213.902C795.555 213.78 795.33 213.594 795.151 213.344C794.975 213.094 794.887 212.778 794.887 212.398V205.886ZM799.95 205.273V214H798.944V205.273H799.95ZM804.536 214.136C803.905 214.136 803.361 213.997 802.904 213.719C802.449 213.438 802.098 213.045 801.851 212.543C801.607 212.037 801.485 211.449 801.485 210.778C801.485 210.108 801.607 209.517 801.851 209.006C802.098 208.491 802.442 208.091 802.882 207.804C803.326 207.514 803.843 207.369 804.434 207.369C804.775 207.369 805.111 207.426 805.444 207.54C805.776 207.653 806.078 207.838 806.351 208.094C806.624 208.347 806.841 208.682 807.003 209.099C807.165 209.517 807.246 210.031 807.246 210.642V211.068H802.201V210.199H806.223C806.223 209.83 806.15 209.5 806.002 209.21C805.857 208.92 805.65 208.692 805.38 208.524C805.113 208.357 804.797 208.273 804.434 208.273C804.033 208.273 803.686 208.372 803.394 208.571C803.104 208.767 802.881 209.023 802.725 209.338C802.569 209.653 802.49 209.991 802.49 210.352V210.932C802.49 211.426 802.576 211.845 802.746 212.189C802.919 212.53 803.159 212.79 803.466 212.969C803.773 213.145 804.13 213.233 804.536 213.233C804.8 213.233 805.039 213.196 805.252 213.122C805.468 213.045 805.654 212.932 805.81 212.781C805.966 212.628 806.087 212.437 806.172 212.21L807.144 212.483C807.042 212.812 806.87 213.102 806.628 213.352C806.387 213.599 806.088 213.793 805.733 213.932C805.378 214.068 804.979 214.136 804.536 214.136ZM862.725 214V205.273H865.674C866.358 205.273 866.918 205.396 867.353 205.643C867.79 205.888 868.114 206.219 868.324 206.636C868.534 207.054 868.64 207.52 868.64 208.034C868.64 208.548 868.534 209.016 868.324 209.436C868.117 209.857 867.796 210.192 867.361 210.442C866.926 210.689 866.37 210.812 865.691 210.812H863.577V209.875H865.657C866.125 209.875 866.502 209.794 866.786 209.632C867.07 209.47 867.276 209.251 867.404 208.976C867.534 208.697 867.6 208.384 867.6 208.034C867.6 207.685 867.534 207.372 867.404 207.097C867.276 206.821 867.069 206.605 866.782 206.449C866.495 206.29 866.114 206.21 865.64 206.21H863.782V214H862.725ZM872.132 214.153C871.717 214.153 871.341 214.075 871.002 213.919C870.664 213.76 870.396 213.531 870.197 213.233C869.998 212.932 869.899 212.568 869.899 212.142C869.899 211.767 869.973 211.463 870.12 211.23C870.268 210.994 870.466 210.81 870.713 210.676C870.96 210.543 871.233 210.443 871.531 210.378C871.832 210.31 872.135 210.256 872.439 210.216C872.836 210.165 873.159 210.126 873.406 210.101C873.656 210.072 873.838 210.026 873.951 209.96C874.068 209.895 874.126 209.781 874.126 209.619V209.585C874.126 209.165 874.011 208.838 873.781 208.605C873.554 208.372 873.208 208.256 872.745 208.256C872.265 208.256 871.889 208.361 871.616 208.571C871.343 208.781 871.152 209.006 871.041 209.244L870.086 208.903C870.257 208.506 870.484 208.196 870.768 207.974C871.055 207.75 871.368 207.594 871.706 207.506C872.047 207.415 872.382 207.369 872.711 207.369C872.922 207.369 873.163 207.395 873.436 207.446C873.711 207.494 873.977 207.595 874.233 207.749C874.491 207.902 874.706 208.134 874.876 208.443C875.047 208.753 875.132 209.168 875.132 209.688V214H874.126V213.114H874.075C874.007 213.256 873.893 213.408 873.734 213.57C873.575 213.732 873.363 213.869 873.099 213.983C872.835 214.097 872.512 214.153 872.132 214.153ZM872.285 213.25C872.683 213.25 873.018 213.172 873.291 213.016C873.566 212.859 873.774 212.658 873.913 212.411C874.055 212.163 874.126 211.903 874.126 211.631V210.71C874.083 210.761 873.99 210.808 873.845 210.851C873.703 210.891 873.538 210.926 873.35 210.957C873.166 210.986 872.985 211.011 872.809 211.034C872.636 211.054 872.495 211.071 872.387 211.085C872.126 211.119 871.882 211.175 871.654 211.251C871.43 211.325 871.248 211.437 871.109 211.588C870.973 211.736 870.904 211.937 870.904 212.193C870.904 212.543 871.034 212.807 871.292 212.986C871.554 213.162 871.885 213.25 872.285 213.25ZM879.609 216.591C879.124 216.591 878.706 216.528 878.357 216.403C878.007 216.281 877.716 216.119 877.483 215.918C877.253 215.719 877.07 215.506 876.933 215.278L877.734 214.716C877.825 214.835 877.94 214.972 878.08 215.125C878.219 215.281 878.409 215.416 878.651 215.53C878.895 215.646 879.214 215.705 879.609 215.705C880.138 215.705 880.574 215.577 880.918 215.321C881.261 215.065 881.433 214.665 881.433 214.119V212.79H881.348C881.274 212.909 881.169 213.057 881.033 213.233C880.899 213.406 880.706 213.561 880.453 213.697C880.203 213.831 879.865 213.898 879.439 213.898C878.911 213.898 878.436 213.773 878.016 213.523C877.598 213.273 877.267 212.909 877.023 212.432C876.781 211.955 876.661 211.375 876.661 210.693C876.661 210.023 876.778 209.439 877.014 208.942C877.25 208.442 877.578 208.055 877.999 207.783C878.419 207.507 878.905 207.369 879.456 207.369C879.882 207.369 880.22 207.44 880.47 207.582C880.723 207.722 880.916 207.881 881.05 208.06C881.186 208.236 881.291 208.381 881.365 208.494H881.467V207.455H882.439V214.188C882.439 214.75 882.311 215.207 882.055 215.56C881.803 215.915 881.462 216.175 881.033 216.339C880.607 216.507 880.132 216.591 879.609 216.591ZM879.575 212.994C879.979 212.994 880.32 212.902 880.598 212.717C880.876 212.533 881.088 212.267 881.233 211.92C881.378 211.574 881.45 211.159 881.45 210.676C881.45 210.205 881.379 209.788 881.237 209.428C881.095 209.067 880.885 208.784 880.607 208.58C880.328 208.375 879.984 208.273 879.575 208.273C879.149 208.273 878.794 208.381 878.51 208.597C878.229 208.812 878.017 209.102 877.875 209.466C877.736 209.83 877.666 210.233 877.666 210.676C877.666 211.131 877.737 211.533 877.879 211.882C878.024 212.229 878.237 212.501 878.518 212.7C878.803 212.896 879.155 212.994 879.575 212.994ZM887.024 214.136C886.393 214.136 885.849 213.997 885.392 213.719C884.938 213.438 884.587 213.045 884.339 212.543C884.095 212.037 883.973 211.449 883.973 210.778C883.973 210.108 884.095 209.517 884.339 209.006C884.587 208.491 884.93 208.091 885.371 207.804C885.814 207.514 886.331 207.369 886.922 207.369C887.263 207.369 887.599 207.426 887.932 207.54C888.264 207.653 888.567 207.838 888.839 208.094C889.112 208.347 889.33 208.682 889.491 209.099C889.653 209.517 889.734 210.031 889.734 210.642V211.068H884.689V210.199H888.712C888.712 209.83 888.638 209.5 888.49 209.21C888.345 208.92 888.138 208.692 887.868 208.524C887.601 208.357 887.286 208.273 886.922 208.273C886.521 208.273 886.175 208.372 885.882 208.571C885.592 208.767 885.369 209.023 885.213 209.338C885.057 209.653 884.979 209.991 884.979 210.352V210.932C884.979 211.426 885.064 211.845 885.234 212.189C885.408 212.53 885.648 212.79 885.955 212.969C886.261 213.145 886.618 213.233 887.024 213.233C887.288 213.233 887.527 213.196 887.74 213.122C887.956 213.045 888.142 212.932 888.298 212.781C888.455 212.628 888.575 212.437 888.661 212.21L889.632 212.483C889.53 212.812 889.358 213.102 889.116 213.352C888.875 213.599 888.577 213.793 888.222 213.932C887.866 214.068 887.467 214.136 887.024 214.136ZM890.314 206.21V205.273H896.859V206.21H894.115V214H893.058V206.21H890.314ZM898.354 214V207.455H899.36V214H898.354ZM898.865 206.364C898.669 206.364 898.5 206.297 898.358 206.163C898.219 206.03 898.15 205.869 898.15 205.682C898.15 205.494 898.219 205.334 898.358 205.2C898.5 205.067 898.669 205 898.865 205C899.061 205 899.229 205.067 899.368 205.2C899.51 205.334 899.581 205.494 899.581 205.682C899.581 205.869 899.51 206.03 899.368 206.163C899.229 206.297 899.061 206.364 898.865 206.364ZM904.048 207.455V208.307H900.656V207.455H904.048ZM901.645 205.886H902.651V212.125C902.651 212.409 902.692 212.622 902.774 212.764C902.859 212.903 902.967 212.997 903.098 213.045C903.232 213.091 903.372 213.114 903.52 213.114C903.631 213.114 903.722 213.108 903.793 213.097C903.864 213.082 903.92 213.071 903.963 213.062L904.168 213.966C904.099 213.991 904.004 214.017 903.882 214.043C903.76 214.071 903.605 214.085 903.418 214.085C903.134 214.085 902.855 214.024 902.582 213.902C902.313 213.78 902.088 213.594 901.909 213.344C901.733 213.094 901.645 212.778 901.645 212.398V205.886ZM906.707 205.273V214H905.702V205.273H906.707ZM911.294 214.136C910.663 214.136 910.119 213.997 909.662 213.719C909.207 213.438 908.856 213.045 908.609 212.543C908.365 212.037 908.243 211.449 908.243 210.778C908.243 210.108 908.365 209.517 908.609 209.006C908.856 208.491 909.2 208.091 909.64 207.804C910.083 207.514 910.6 207.369 911.191 207.369C911.532 207.369 911.869 207.426 912.201 207.54C912.534 207.653 912.836 207.838 913.109 208.094C913.382 208.347 913.599 208.682 913.761 209.099C913.923 209.517 914.004 210.031 914.004 210.642V211.068H908.958V210.199H912.981C912.981 209.83 912.907 209.5 912.76 209.21C912.615 208.92 912.407 208.692 912.137 208.524C911.87 208.357 911.555 208.273 911.191 208.273C910.791 208.273 910.444 208.372 910.152 208.571C909.862 208.767 909.639 209.023 909.483 209.338C909.326 209.653 909.248 209.991 909.248 210.352V210.932C909.248 211.426 909.333 211.845 909.504 212.189C909.677 212.53 909.917 212.79 910.224 212.969C910.531 213.145 910.887 213.233 911.294 213.233C911.558 213.233 911.797 213.196 912.01 213.122C912.225 213.045 912.412 212.932 912.568 212.781C912.724 212.628 912.845 212.437 912.93 212.21L913.902 212.483C913.799 212.812 913.627 213.102 913.386 213.352C913.145 213.599 912.846 213.793 912.491 213.932C912.136 214.068 911.737 214.136 911.294 214.136ZM755.967 229V220.273H757.024V228.062H761.081V229H755.967ZM762.581 229V222.455H763.586V229H762.581ZM763.092 221.364C762.896 221.364 762.727 221.297 762.585 221.163C762.446 221.03 762.376 220.869 762.376 220.682C762.376 220.494 762.446 220.334 762.585 220.2C762.727 220.067 762.896 220 763.092 220C763.288 220 763.456 220.067 763.595 220.2C763.737 220.334 763.808 220.494 763.808 220.682C763.808 220.869 763.737 221.03 763.595 221.163C763.456 221.297 763.288 221.364 763.092 221.364ZM770.065 223.92L769.161 224.176C769.104 224.026 769.021 223.879 768.91 223.737C768.802 223.592 768.654 223.473 768.467 223.379C768.279 223.286 768.039 223.239 767.746 223.239C767.346 223.239 767.012 223.331 766.745 223.516C766.481 223.697 766.349 223.929 766.349 224.21C766.349 224.46 766.44 224.658 766.621 224.803C766.803 224.947 767.087 225.068 767.474 225.165L768.445 225.403C769.031 225.545 769.467 225.763 769.754 226.055C770.04 226.345 770.184 226.719 770.184 227.176C770.184 227.551 770.076 227.886 769.86 228.182C769.647 228.477 769.349 228.71 768.965 228.881C768.582 229.051 768.136 229.136 767.627 229.136C766.96 229.136 766.407 228.991 765.969 228.702C765.532 228.412 765.255 227.989 765.138 227.432L766.093 227.193C766.184 227.545 766.356 227.81 766.609 227.986C766.864 228.162 767.198 228.25 767.61 228.25C768.079 228.25 768.451 228.151 768.727 227.952C769.005 227.75 769.144 227.509 769.144 227.227C769.144 227 769.065 226.81 768.906 226.656C768.746 226.5 768.502 226.384 768.173 226.307L767.082 226.051C766.482 225.909 766.042 225.689 765.761 225.391C765.482 225.089 765.343 224.713 765.343 224.261C765.343 223.892 765.447 223.565 765.654 223.281C765.864 222.997 766.15 222.774 766.511 222.612C766.874 222.45 767.286 222.369 767.746 222.369C768.394 222.369 768.903 222.511 769.272 222.795C769.644 223.08 769.908 223.455 770.065 223.92ZM774.544 222.455V223.307H771.152V222.455H774.544ZM772.141 220.886H773.147V227.125C773.147 227.409 773.188 227.622 773.27 227.764C773.355 227.903 773.463 227.997 773.594 228.045C773.728 228.091 773.868 228.114 774.016 228.114C774.127 228.114 774.218 228.108 774.289 228.097C774.36 228.082 774.417 228.071 774.459 228.062L774.664 228.966C774.596 228.991 774.5 229.017 774.378 229.043C774.256 229.071 774.101 229.085 773.914 229.085C773.63 229.085 773.351 229.024 773.078 228.902C772.809 228.78 772.584 228.594 772.405 228.344C772.229 228.094 772.141 227.778 772.141 227.398V220.886ZM769.331 244V237.455H770.336V244H769.331ZM769.842 236.364C769.646 236.364 769.477 236.297 769.335 236.163C769.196 236.03 769.126 235.869 769.126 235.682C769.126 235.494 769.196 235.334 769.335 235.2C769.477 235.067 769.646 235 769.842 235C770.038 235 770.206 235.067 770.345 235.2C770.487 235.334 770.558 235.494 770.558 235.682C770.558 235.869 770.487 236.03 770.345 236.163C770.206 236.297 770.038 236.364 769.842 236.364ZM775.025 237.455V238.307H771.633V237.455H775.025ZM772.621 235.886H773.627V242.125C773.627 242.409 773.668 242.622 773.751 242.764C773.836 242.903 773.944 242.997 774.075 243.045C774.208 243.091 774.349 243.114 774.496 243.114C774.607 243.114 774.698 243.108 774.769 243.097C774.84 243.082 774.897 243.071 774.94 243.062L775.144 243.966C775.076 243.991 774.981 244.017 774.859 244.043C774.737 244.071 774.582 244.085 774.394 244.085C774.11 244.085 773.832 244.024 773.559 243.902C773.289 243.78 773.065 243.594 772.886 243.344C772.71 243.094 772.621 242.778 772.621 242.398V235.886ZM779.212 244.136C778.581 244.136 778.037 243.997 777.58 243.719C777.125 243.438 776.774 243.045 776.527 242.543C776.283 242.037 776.161 241.449 776.161 240.778C776.161 240.108 776.283 239.517 776.527 239.006C776.774 238.491 777.118 238.091 777.558 237.804C778.001 237.514 778.518 237.369 779.109 237.369C779.45 237.369 779.787 237.426 780.119 237.54C780.452 237.653 780.754 237.838 781.027 238.094C781.3 238.347 781.517 238.682 781.679 239.099C781.841 239.517 781.922 240.031 781.922 240.642V241.068H776.876V240.199H780.899C780.899 239.83 780.825 239.5 780.678 239.21C780.533 238.92 780.325 238.692 780.055 238.524C779.788 238.357 779.473 238.273 779.109 238.273C778.709 238.273 778.362 238.372 778.07 238.571C777.78 238.767 777.557 239.023 777.401 239.338C777.244 239.653 777.166 239.991 777.166 240.352V240.932C777.166 241.426 777.251 241.845 777.422 242.189C777.595 242.53 777.835 242.79 778.142 242.969C778.449 243.145 778.805 243.233 779.212 243.233C779.476 243.233 779.714 243.196 779.928 243.122C780.143 243.045 780.33 242.932 780.486 242.781C780.642 242.628 780.763 242.437 780.848 242.21L781.82 242.483C781.717 242.812 781.545 243.102 781.304 243.352C781.063 243.599 780.764 243.793 780.409 243.932C780.054 244.068 779.655 244.136 779.212 244.136ZM783.452 244V237.455H784.423V238.477H784.509C784.645 238.128 784.865 237.857 785.169 237.663C785.473 237.467 785.838 237.369 786.264 237.369C786.696 237.369 787.055 237.467 787.342 237.663C787.632 237.857 787.858 238.128 788.02 238.477H788.088C788.256 238.139 788.507 237.871 788.842 237.672C789.178 237.47 789.58 237.369 790.048 237.369C790.634 237.369 791.112 237.553 791.484 237.919C791.857 238.283 792.043 238.849 792.043 239.619V244H791.037V239.619C791.037 239.136 790.905 238.791 790.641 238.584C790.376 238.376 790.065 238.273 789.707 238.273C789.247 238.273 788.891 238.412 788.638 238.69C788.385 238.966 788.259 239.315 788.259 239.739V244H787.236V239.517C787.236 239.145 787.115 238.845 786.874 238.618C786.632 238.388 786.321 238.273 785.94 238.273C785.679 238.273 785.435 238.342 785.207 238.482C784.983 238.621 784.801 238.814 784.662 239.061C784.526 239.305 784.457 239.588 784.457 239.909V244H783.452ZM871.188 235.273V244H870.131V235.273H871.188ZM876.017 237.455V238.307H872.625V237.455H876.017ZM873.614 235.886H874.619V242.125C874.619 242.409 874.661 242.622 874.743 242.764C874.828 242.903 874.936 242.997 875.067 243.045C875.2 243.091 875.341 243.114 875.489 243.114C875.599 243.114 875.69 243.108 875.761 243.097C875.832 243.082 875.889 243.071 875.932 243.062L876.136 243.966C876.068 243.991 875.973 244.017 875.851 244.043C875.729 244.071 875.574 244.085 875.386 244.085C875.102 244.085 874.824 244.024 874.551 243.902C874.281 243.78 874.057 243.594 873.878 243.344C873.702 243.094 873.614 242.778 873.614 242.398V235.886ZM880.204 244.136C879.573 244.136 879.029 243.997 878.572 243.719C878.117 243.438 877.766 243.045 877.519 242.543C877.275 242.037 877.153 241.449 877.153 240.778C877.153 240.108 877.275 239.517 877.519 239.006C877.766 238.491 878.11 238.091 878.55 237.804C878.994 237.514 879.511 237.369 880.102 237.369C880.442 237.369 880.779 237.426 881.112 237.54C881.444 237.653 881.746 237.838 882.019 238.094C882.292 238.347 882.509 238.682 882.671 239.099C882.833 239.517 882.914 240.031 882.914 240.642V241.068H877.869V240.199H881.891C881.891 239.83 881.817 239.5 881.67 239.21C881.525 238.92 881.317 238.692 881.048 238.524C880.781 238.357 880.465 238.273 880.102 238.273C879.701 238.273 879.354 238.372 879.062 238.571C878.772 238.767 878.549 239.023 878.393 239.338C878.237 239.653 878.158 239.991 878.158 240.352V240.932C878.158 241.426 878.244 241.845 878.414 242.189C878.587 242.53 878.827 242.79 879.134 242.969C879.441 243.145 879.798 243.233 880.204 243.233C880.468 243.233 880.707 243.196 880.92 243.122C881.136 243.045 881.322 242.932 881.478 242.781C881.634 242.628 881.755 242.437 881.84 242.21L882.812 242.483C882.71 242.812 882.538 243.102 882.296 243.352C882.055 243.599 881.756 243.793 881.401 243.932C881.046 244.068 880.647 244.136 880.204 244.136ZM884.444 244V237.455H885.415V238.477H885.501C885.637 238.128 885.857 237.857 886.161 237.663C886.465 237.467 886.83 237.369 887.256 237.369C887.688 237.369 888.048 237.467 888.335 237.663C888.624 237.857 888.85 238.128 889.012 238.477H889.08C889.248 238.139 889.499 237.871 889.835 237.672C890.17 237.47 890.572 237.369 891.04 237.369C891.626 237.369 892.104 237.553 892.477 237.919C892.849 238.283 893.035 238.849 893.035 239.619V244H892.029V239.619C892.029 239.136 891.897 238.791 891.633 238.584C891.369 238.376 891.058 238.273 890.7 238.273C890.239 238.273 889.883 238.412 889.63 238.69C889.377 238.966 889.251 239.315 889.251 239.739V244H888.228V239.517C888.228 239.145 888.107 238.845 887.866 238.618C887.624 238.388 887.313 238.273 886.933 238.273C886.671 238.273 886.427 238.342 886.2 238.482C885.975 238.621 885.793 238.814 885.654 239.061C885.518 239.305 885.45 239.588 885.45 239.909V244H884.444ZM760.244 262V253.273H761.301V261.062H765.358V262H760.244ZM766.858 262V255.455H767.864V262H766.858ZM767.369 254.364C767.173 254.364 767.004 254.297 766.862 254.163C766.723 254.03 766.653 253.869 766.653 253.682C766.653 253.494 766.723 253.334 766.862 253.2C767.004 253.067 767.173 253 767.369 253C767.565 253 767.733 253.067 767.872 253.2C768.014 253.334 768.085 253.494 768.085 253.682C768.085 253.869 768.014 254.03 767.872 254.163C767.733 254.297 767.565 254.364 767.369 254.364ZM774.342 256.92L773.439 257.176C773.382 257.026 773.298 256.879 773.187 256.737C773.079 256.592 772.931 256.473 772.744 256.379C772.556 256.286 772.316 256.239 772.024 256.239C771.623 256.239 771.289 256.331 771.022 256.516C770.758 256.697 770.626 256.929 770.626 257.21C770.626 257.46 770.717 257.658 770.899 257.803C771.081 257.947 771.365 258.068 771.751 258.165L772.723 258.403C773.308 258.545 773.744 258.763 774.031 259.055C774.318 259.345 774.461 259.719 774.461 260.176C774.461 260.551 774.353 260.886 774.137 261.182C773.924 261.477 773.626 261.71 773.243 261.881C772.859 262.051 772.413 262.136 771.904 262.136C771.237 262.136 770.684 261.991 770.247 261.702C769.809 261.412 769.532 260.989 769.416 260.432L770.37 260.193C770.461 260.545 770.633 260.81 770.886 260.986C771.142 261.162 771.475 261.25 771.887 261.25C772.356 261.25 772.728 261.151 773.004 260.952C773.282 260.75 773.422 260.509 773.422 260.227C773.422 260 773.342 259.81 773.183 259.656C773.024 259.5 772.779 259.384 772.45 259.307L771.359 259.051C770.76 258.909 770.319 258.689 770.038 258.391C769.76 258.089 769.62 257.713 769.62 257.261C769.62 256.892 769.724 256.565 769.931 256.281C770.142 255.997 770.427 255.774 770.788 255.612C771.152 255.45 771.564 255.369 772.024 255.369C772.672 255.369 773.18 255.511 773.549 255.795C773.922 256.08 774.186 256.455 774.342 256.92ZM778.822 255.455V256.307H775.43V255.455H778.822ZM776.418 253.886H777.424V260.125C777.424 260.409 777.465 260.622 777.548 260.764C777.633 260.903 777.741 260.997 777.871 261.045C778.005 261.091 778.146 261.114 778.293 261.114C778.404 261.114 778.495 261.108 778.566 261.097C778.637 261.082 778.694 261.071 778.737 261.062L778.941 261.966C778.873 261.991 778.778 262.017 778.656 262.043C778.533 262.071 778.379 262.085 778.191 262.085C777.907 262.085 777.629 262.024 777.356 261.902C777.086 261.78 776.862 261.594 776.683 261.344C776.506 261.094 776.418 260.778 776.418 260.398V253.886Z" fill="#00AE65"/>
</g>
<defs>
<linearGradient id="paint0_linear_6_104" x1="640.179" y1="552.111" x2="257.697" y2="654.615" gradientUnits="userSpaceOnUse">
<stop stop-color="#888888"/>
<stop offset="1" stop-color="#555555"/>
</linearGradient>
<linearGradient id="paint1_linear_6_104" x1="496.747" y1="402.133" x2="-5.41279" y2="569.171" gradientUnits="userSpaceOnUse">
<stop stop-color="#00B9F9"/>
<stop offset="0.0001" stop-color="#0037F9"/>
<stop offset="1" stop-color="#00FD94"/>
</linearGradient>
<linearGradient id="paint2_linear_6_104" x1="552.173" y1="434.131" x2="50.0141" y2="601.169" gradientUnits="userSpaceOnUse">
<stop stop-color="#00B9F9"/>
<stop offset="0.0001" stop-color="#2A52DD"/>
<stop offset="1" stop-color="#18CA80"/>
</linearGradient>
<clipPath id="clip0_6_104">
<rect width="1024" height="1024" fill="white"/>
</clipPath>
</defs>
</svg>
